<?xml version="1.0" encoding="UTF-8"?>
<!DOCTYPE svg PUBLIC "-//W3C//DTD SVG 1.1//EN" "http://www.w3.org/Graphics/SVG/1.1/DTD/svg11.dtd">
<!-- Creator: CorelDRAW 2020 (64 Bit) -->
<svg xmlns="http://www.w3.org/2000/svg" xml:space="preserve" width="474px" height="462px" version="1.1" style="shape-rendering:geometricPrecision; text-rendering:geometricPrecision; image-rendering:optimizeQuality; fill-rule:evenodd; clip-rule:evenodd"
viewBox="0 0 149.55 145.99"
 xmlns:xlink="http://www.w3.org/1999/xlink"
 xmlns:xodm="http://www.corel.com/coreldraw/odm/2003">
 <defs>
  <style type="text/css">
   <![CDATA[
    .fil0 {fill:#474648}
   ]]>
  </style>
 </defs>
 <g id="Camada_x0020_1">
  <metadata id="CorelCorpID_0Corel-Layer"/>
  <g id="_2027587844448">
   <path class="fil0" d="M0 22.56c0.1,16.82 0.28,33.62 0.4,50.43 0.13,16.8 0.53,33.61 0.74,50.45 0.62,0.69 0.8,1.23 1.51,1.81 0.69,0.54 1.52,0.88 2.36,1.38 8.71,1.12 17.45,2.14 26.16,3.33 8.72,1.2 17.44,2.69 26.16,4.01 -0.3,-23.12 -0.03,-0.03 -0.3,-23.12 -53.07,-4.64 0,0 -26.82,-2.61 -0.4,-22.28 0,0 -0.4,-22.28 12.88,0.54 12.92,0.55 16.35,0.69 3.42,0.14 10.23,0.38 36.6,1.47 -0.43,-26.6 0.13,0 -0.3,-26.6 -8.81,0.06 -17.62,0.27 -26.43,0.46 -8.81,0.18 -17.62,0.32 -26.43,0.54 -0.12,-22.65 0,0 -0.12,-22.65 41.09,-3.33 41.09,-3.33 41.09,-3.33 0,0 0,0 41.1,-3.14 -0.03,-9.54 -0.06,-19.06 -0.04,-28.61 -18.07,2.51 -36.14,4.72 -54.21,7.24 -18.07,2.52 -36.14,5.05 -54.2,7.56 -0.33,0.26 -0.69,0.41 -1.02,0.66 -0.39,0.28 -0.6,0.46 -0.9,0.69 -0.76,0.7 -0.72,0.99 -1.3,1.62z"/>
   <path class="fil0" d="M114.69 116.17c-14.21,-1.19 -28.13,-2.52 -38.5,-3.49 -10.34,-0.97 -17.17,-1.55 -17.17,-1.55 0.3,23.12 -0.01,-0.06 0.3,23.12 14.3,2.1 28.6,4.25 42.93,6.24 14.29,1.99 28.63,3.67 42.94,5.5 0.53,-0.25 1.2,-0.36 1.57,-0.61 0.96,-0.6 1.65,-1.33 2.16,-2.28 0.25,-0.5 0.36,-1.2 0.63,-1.64 -0.36,-22.84 -0.97,-45.69 -1.14,-68.49 -0.17,-22.8 -0.12,-45.6 -0.17,-68.45 -0.23,-0.44 -0.31,-1.12 -0.55,-1.63 -0.24,-0.5 -0.55,-0.86 -0.81,-1.22 -0.8,-1.1 -1.19,-0.9 -2.31,-1.67 -10.28,1.41 -20.36,3.15 -30.64,4.57 0.09,55.81 0.09,55.81 0.09,55.81 0,0 0,0 0.67,55.79z"/>
   <path class="fil0" d="M31.74 60.37c28.48,-0.62 28.46,-0.63 28,-0.63 -0.45,0 -1.38,-0.03 25.25,-0.61 0.27,33.07 0,0 0.25,31.51 -26.91,-1.22 -26.91,-1.22 -26.83,-1.22 0.07,0 0.21,0 -26.4,-1.24 0.39,18.59 -0.05,0.07 0.39,18.59 39.89,3.73 39.89,3.73 39.89,3.73 0,0 0.03,0 39.97,3.61 -0.66,-39.37 -0.66,-39.37 -0.66,-39.37 0,0 0,0 -0.12,-39.34 -39.89,2.83 -39.89,2.83 -39.89,2.83 0,0 0,0 -39.9,3.02 0.05,19.12 0.09,0.89 0.05,19.12z"/>
  </g>
 </g>
</svg>
