<?xml version="1.0" encoding="UTF-8"?>
<!DOCTYPE svg PUBLIC "-//W3C//DTD SVG 1.1//EN" "http://www.w3.org/Graphics/SVG/1.1/DTD/svg11.dtd">
<!-- Creator: CorelDRAW 2020 (64 Bit) -->
<svg xmlns="http://www.w3.org/2000/svg" xml:space="preserve" width="474px" height="462px" version="1.1" style="shape-rendering:geometricPrecision; text-rendering:geometricPrecision; image-rendering:optimizeQuality; fill-rule:evenodd; clip-rule:evenodd"
viewBox="0 0 11221.71 10954.57"
 xmlns:xlink="http://www.w3.org/1999/xlink"
 xmlns:xodm="http://www.corel.com/coreldraw/odm/2003">
 <defs>
  <style type="text/css">
   <![CDATA[
    .fil0 {fill:#FEFEFE}
   ]]>
  </style>
 </defs>
 <g id="Camada_x0020_1">
  <metadata id="CorelCorpID_0Corel-Layer"/>
  <g id="_2027585115552">
   <path class="fil0" d="M0 1693.23c7.84,1261.89 20.77,2522.72 30.29,3783.49 9.51,1260.83 39.3,2522.72 55,3785.73 47.14,51.98 60.6,92.91 113.36,136.04 51.65,40.92 114.49,66.34 177.35,103.96 653.23,84.06 1309.59,160.39 1963.07,249.93 654.15,89.63 1308.72,201.31 1963.07,300.85 -22.45,-1735.28 -2.24,-2.21 -22.45,-1735.28 -3982.26,-348.37 0,0 -2012.45,-195.74 -30.31,-1672.24 0,0 -30.31,-1672.24 966.39,40.92 969.75,41.48 1226.79,51.98 256.99,10.5 767.71,28.78 2746.51,110.62 -32.56,-1996.26 10.08,0 -22.45,-1996.26 -661.09,4.42 -1322.18,20.43 -1983.28,34.26 -661.06,13.8 -1322.18,24.35 -1983.27,40.92 -8.99,-1699.87 0,0 -8.99,-1699.87 3083.21,-249.93 3083.21,-249.93 3083.21,-249.93 0,0 0,0 3084.36,-235.57 -2.24,-715.56 -4.48,-1430.01 -3.36,-2146.69 -1355.85,188.02 -2711.88,353.95 -4067.57,543.03 -1355.99,189.13 -2711.71,379.36 -4067.57,567.38 -24.69,19.9 -51.64,30.95 -76.33,49.76 -29.17,21 -44.9,34.27 -67.35,51.98 -57.24,51.98 -53.88,74.1 -97.63,121.65z"/>
   <path class="fil0" d="M8606.54 8717.22c-1066.29,-89.6 -2111.03,-189.05 -2889.07,-262.11 -776.47,-72.89 -1288.51,-116.14 -1288.51,-116.14 22.45,1735.25 -1.12,-4.42 22.45,1735.25 1073.01,157.06 2146.1,318.32 3221.29,467.84 1071.98,149.08 2148.26,275.38 3222.41,412.51 39.28,-18.78 89.8,-26.54 117.85,-45.35 71.82,-45.34 123.46,-99.53 161.62,-171.42 19.09,-37.59 26.95,-89.57 47.13,-122.76 -26.92,-1714.23 -72.38,-3428.4 -85.29,-5139.41 -12.87,-1710.87 -8.98,-3421.84 -12.34,-5136.1 -17.97,-33.17 -23.57,-84.06 -41.54,-122.77 -17.94,-37.59 -41.51,-64.12 -60.6,-91.78 -60.6,-81.85 -89.79,-67.46 -173.96,-124.98 -771.1,106.17 -1527.58,236.66 -2298.68,342.83 6.72,4188.3 6.72,4188.3 6.72,4188.3 0,0 0,0 50.52,4186.09z"/>
   <path class="fil0" d="M2381.73 4530.04c2137.03,-46.47 2135.91,-47.56 2101.12,-47.56 -33.68,0 -103.26,-2.21 1894.6,-45.34 20.21,2481.77 0,0 19.09,2364.54 -2019.19,-91.78 -2019.19,-91.78 -2013.59,-91.78 5.62,0 15.73,0 -1981.04,-92.91 29.19,1394.63 -3.36,5.52 29.19,1394.63 2993.45,279.8 2993.45,279.8 2993.45,279.8 0,0 2.24,0 2999.04,270.95 -49.38,-2954.03 -49.38,-2954.03 -49.38,-2954.03 0,0 0,0 -8.98,-2951.82 -2993.44,212.36 -2993.44,212.36 -2993.44,212.36 0,0 0,0 -2993.45,226.7 3.39,1434.46 6.75,66.37 3.39,1434.46z"/>
  </g>
 </g>
</svg>
