<?xml version="1.0" encoding="UTF-8"?>
<!DOCTYPE svg PUBLIC "-//W3C//DTD SVG 1.1//EN" "http://www.w3.org/Graphics/SVG/1.1/DTD/svg11.dtd">
<!-- Creator: CorelDRAW 2020 (64 Bit) -->
<svg xmlns="http://www.w3.org/2000/svg" xml:space="preserve" width="500px" height="500px" version="1.1" style="shape-rendering:geometricPrecision; text-rendering:geometricPrecision; image-rendering:optimizeQuality; fill-rule:evenodd; clip-rule:evenodd"
viewBox="0 0 239.33 239.33"
 xmlns:xlink="http://www.w3.org/1999/xlink"
 xmlns:xodm="http://www.corel.com/coreldraw/odm/2003">
 <defs>
  <style type="text/css">
   <![CDATA[
    .fil0 {fill:#E43938}
    .fil2 {fill:#7BB44D}
    .fil1 {fill:#3E83C3}
   ]]>
  </style>
 </defs>
 <g id="Camada_x0020_1">
  <metadata id="CorelCorpID_0Corel-Layer"/>
  <path class="fil0" d="M0.55 123.37l115.6 115.34c1.21,0.17 1.98,0.65 3.12,0.62 1.09,-0.03 2.04,-0.48 3.2,-0.69l43.41 -43.35c-23.07,-22.98 -0.05,0 -23.07,-22.98 -44.13,43.95 0,0 -22.29,22.2 -23.76,-23.75 0,0 -23.76,-23.75 21.48,-21.33 0.18,-0.19 44.09,-43.93 -25.3,-24.84 0.11,-0.11 -25.19,-24.95l-43.96 43.92c-24.11,-24.19 0,0 -24.11,-24.19 68.14,-68.38 0,0 68.14,-68.38l-25.31 -25.31 -90.07 89.86c-0.03,0.5 -0.22,0.92 -0.28,1.44 -0.07,0.56 -0.07,0.9 -0.07,1.39 0.01,1.3 0.41,1.62 0.55,2.76z"/>
  <path class="fil1" d="M190.73 124.52c-23.59,23.54 -46.19,46.2 -46.19,46.2 22.99,22.94 -0.06,-0.04 22.99,22.94l71.09 -71.34c0.17,-0.69 0.55,-1.42 0.62,-1.97 0.19,-1.42 0.08,-2.65 -0.35,-3.92 -0.22,-0.65 -0.7,-1.33 -0.87,-1.93l-113.25 -112.99c-0.59,-0.21 -1.21,-0.71 -1.87,-0.97 -0.62,-0.24 -1.22,-0.32 -1.77,-0.42 -1.67,-0.33 -1.88,0.12 -3.57,0.29 -8.54,8.52 -16.61,17.16 -25.16,25.69 98.33,98.42 0,0 98.33,98.42z"/>
  <path class="fil2" d="M71.29 141.82c47.57,-47.13 0,0 44.28,-44.24 31.03,30.97 0,0 29.58,29.49 -44.77,44.69 0,0 -44.28,44.2 19.74,19.69 0.05,0.12 19.74,19.69 66.42,-66.07 0,0 66.46,-66.11 -69.74,-69.68 0,0 -69.74,-69.68 -66.25,66.29 0,0 -66.25,66.29 20.21,20.36 1,0.86 20.21,20.36z"/>
 </g>
</svg>
