<?xml version="1.0" encoding="UTF-8"?>
<!DOCTYPE svg PUBLIC "-//W3C//DTD SVG 1.1//EN" "http://www.w3.org/Graphics/SVG/1.1/DTD/svg11.dtd">
<!-- Creator: CorelDRAW 2020 (64 Bit) -->
<svg xmlns="http://www.w3.org/2000/svg" xml:space="preserve" width="491px" height="526px" version="1.1" style="shape-rendering:geometricPrecision; text-rendering:geometricPrecision; image-rendering:optimizeQuality; fill-rule:evenodd; clip-rule:evenodd"
viewBox="0 0 12063.22 12921.82"
 xmlns:xlink="http://www.w3.org/1999/xlink"
 xmlns:xodm="http://www.corel.com/coreldraw/odm/2003">
 <defs>
  <style type="text/css">
   <![CDATA[
    .fil0 {fill:#FEFEFE}
    .fil1 {fill:#FEFEFE;fill-rule:nonzero}
   ]]>
  </style>
 </defs>
 <g id="Camada_x0020_1">
  <metadata id="CorelCorpID_0Corel-Layer"/>
  <g id="_2027583587936">
   <path class="fil0" d="M0 1753.96c8.12,1307.15 21.51,2613.2 31.37,3919.19 9.86,1306.04 40.71,2613.19 56.98,3921.5 48.82,53.85 62.77,96.24 117.43,140.92 53.49,42.39 118.59,68.71 183.71,107.68 676.65,87.08 1356.56,166.14 2033.47,258.9 677.61,92.84 1355.66,208.53 2033.47,311.64 -23.25,-1797.51 -2.32,-2.29 -23.25,-1797.51 -4125.08,-360.87 0,0 -2084.62,-202.77 -31.4,-1732.21 0,0 -31.4,-1732.21 1001.05,42.39 1004.53,42.97 1270.79,53.84 266.2,10.88 795.24,29.81 2845.01,114.59 -33.72,-2067.86 10.44,0 -23.26,-2067.86 -684.8,4.58 -1369.6,21.17 -2054.4,35.49 -684.77,14.3 -1369.61,25.23 -2054.41,42.39 -9.31,-1760.83 0,0 -9.31,-1760.83 3193.8,-258.9 3193.8,-258.9 3193.8,-258.9 0,0 0,0 3194.97,-244.02 -2.31,-741.22 -4.63,-1481.29 -3.47,-2223.68 -1404.49,194.76 -2809.15,366.64 -4213.46,562.51 -1404.63,195.91 -2808.97,392.96 -4213.45,587.72 -25.58,20.62 -53.5,32.07 -79.07,51.56 -30.22,21.74 -46.51,35.49 -69.77,53.84 -59.29,53.84 -55.81,76.75 -101.13,126.01z"/>
   <path class="fil0" d="M8915.21 9029.86c-1104.53,-92.81 -2186.74,-195.83 -2992.68,-271.51 -804.32,-75.5 -1334.72,-120.3 -1334.72,-120.3 23.25,1797.48 -1.16,-4.58 23.25,1797.48 1111.49,162.69 2223.07,329.73 3336.82,484.62 1110.42,154.43 2225.31,285.26 3337.99,427.3 40.68,-19.45 93.01,-27.48 122.07,-46.97 74.4,-46.97 127.89,-103.11 167.41,-177.56 19.78,-38.94 27.92,-92.79 48.83,-127.18 -27.89,-1775.7 -74.98,-3551.35 -88.35,-5323.72 -13.34,-1772.23 -9.3,-3544.58 -12.78,-5320.31 -18.62,-34.36 -24.42,-87.07 -43.03,-127.17 -18.59,-38.94 -43,-66.43 -62.78,-95.08 -62.77,-84.78 -93.01,-69.88 -180.2,-129.46 -798.75,109.98 -1582.37,245.15 -2381.12,355.13 6.96,4338.51 6.96,4338.51 6.96,4338.51 0,0 0,0 52.33,4336.22z"/>
   <path class="fil0" d="M2467.15 4692.51c2213.67,-48.13 2212.51,-49.26 2176.47,-49.26 -34.88,0 -106.96,-2.29 1962.55,-46.98 20.94,2570.78 0,0 19.78,2449.35 -2091.61,-95.07 -2091.61,-95.07 -2085.81,-95.07 5.83,0 16.3,0 -2052.09,-96.24 30.25,1444.65 -3.48,5.71 30.25,1444.65 3100.8,289.83 3100.8,289.83 3100.8,289.83 0,0 2.32,0 3106.6,280.67 -51.14,-3059.98 -51.14,-3059.98 -51.14,-3059.98 0,0 0,0 -9.31,-3057.69 -3100.81,219.99 -3100.81,219.99 -3100.81,219.99 0,0 0,0 -3100.8,234.83 3.51,1485.9 6.99,68.74 3.51,1485.9z"/>
  </g>
  <path class="fil1" d="M484.77 12021.47c67.09,0 122.12,25.77 165.3,77.33l-379.29 171.21c-1.62,-10.2 -2.46,-20.84 -2.46,-31.69 0,-59.96 21.08,-111.08 63.03,-153.44 42.34,-42.33 93.48,-63.41 153.42,-63.41zm297.25 78.95c-25.98,-57.06 -65.47,-103.1 -118.65,-137.87 -54.01,-35.4 -113.54,-53.2 -178.6,-53.2 -90.41,0 -167.54,31.92 -231.38,95.94 -64.02,63.85 -95.95,140.97 -95.95,231.18 0,90.43 31.93,167.56 95.95,231.38 63.84,64.02 140.97,95.94 231.38,95.94 70.16,0 134.01,-20.67 191.07,-61.79 56.05,-39.9 95.13,-92.26 117.64,-156.89 6.34,-18.01 4.08,-34.59 -6.76,-49.93 -11.05,-15.54 -26.18,-23.31 -44.8,-23.31 -26.38,0 -43.98,12.47 -52.77,37.23 -14.93,42.77 -40.71,77.53 -77.33,104.32 -38.07,27.43 -80.4,41.32 -127.05,41.32 -70.37,0 -127.03,-27.6 -170.2,-82.84 33.54,-15.13 106.78,-48.28 219.92,-99.42 91.02,-41.12 164.66,-74.26 220.51,-99.43 13.92,-6.35 23.54,-16.58 28.85,-30.67 5.13,-14.33 4.52,-28.24 -1.83,-41.96z"/>
  <path id="1" class="fil1" d="M1125.44 11663.67c14.73,0 27.43,5.1 38.24,15.54 10.85,10.85 16.18,23.72 16.18,38.88l0 791.07c0,15.34 -5.33,28.04 -16.18,38.48 -10.81,10.84 -23.51,16.15 -38.24,16.15l-1.83 0c-14.73,0 -27.63,-5.31 -38.48,-16.15 -10.64,-10.44 -16.15,-23.14 -16.15,-38.48l0 -791.07c0,-15.16 5.51,-28.03 16.15,-38.88 10.85,-10.44 23.75,-15.54 38.48,-15.54l1.83 0z"/>
  <path id="2" class="fil1" d="M1574.83 11964.38c0,-15.14 -5.31,-28.01 -16.15,-38.86 -10.84,-10.84 -23.51,-16.17 -38.45,-16.17l-1.65 0c-14.93,0 -27.6,5.33 -38.45,16.17 -10.84,10.85 -16.18,23.72 -16.18,38.86l0 327.93c0,74.69 26.59,138.71 79.8,191.69 52.97,53.2 117.22,79.79 192.29,79.79 74.66,0 138.71,-26.59 191.89,-79.79 53,-52.98 79.59,-117 79.59,-191.69l0 -327.93c0,-15.14 -5.33,-28.01 -16.18,-38.86 -10.41,-10.84 -23.11,-16.17 -38.24,-16.17l-1.22 0c-15.14,0 -28.24,5.33 -39.09,16.17 -10.64,10.85 -16.15,23.72 -16.15,38.86l0 327.93c0,44.39 -15.57,82.26 -46.65,113.75 -31.72,31.31 -69.56,46.85 -113.95,46.85 -44.8,0 -82.84,-15.54 -114.35,-46.85 -31.29,-31.49 -46.86,-69.36 -46.86,-113.75l0 -327.93z"/>
  <path id="3" class="fil1" d="M2594.99 11909.35c90.23,0 167.33,31.92 231.17,95.94 64.02,63.85 95.95,140.97 95.95,231.18l0 272.69c0,15.34 -5.34,28.04 -16.18,38.48 -10.85,10.84 -23.52,16.15 -38.25,16.15l-1.82 0c-14.73,0 -27.63,-5.31 -38.48,-16.15 -10.64,-10.44 -16.15,-23.14 -16.15,-38.48l0 -27.4c-61.99,54.63 -134.01,82.03 -216.24,82.03 -90.41,0 -167.54,-31.92 -231.38,-95.94 -64.02,-63.82 -95.95,-140.95 -95.95,-231.38 0,-90.21 31.93,-167.33 95.95,-231.18 63.84,-64.02 140.97,-95.94 231.38,-95.94zm0 110.9c-59.94,0 -111.08,21.05 -153.44,63.41 -41.93,42.34 -63.01,93.28 -63.01,152.81 0,59.93 21.08,111.08 63.01,153.44 42.36,41.92 93.5,63 153.44,63 59.93,0 110.87,-21.08 152.83,-63 42.33,-42.36 63.41,-93.51 63.41,-153.44 0,-59.53 -21.08,-110.47 -63.41,-152.81 -41.96,-42.36 -92.9,-63.41 -152.83,-63.41z"/>
  <path id="4" class="fil1" d="M3293.13 12509.16c0,15.34 -5.31,28.04 -16.15,38.48 -10.85,10.84 -23.52,16.15 -38.45,16.15l-1.65 0c-14.94,0 -27.61,-5.31 -38.45,-16.15 -10.84,-10.44 -16.18,-23.14 -16.18,-38.48l0 -327.73c0,-75.06 26.59,-139.32 79.79,-192.49 52.98,-52.98 117.23,-79.59 192.3,-79.59 74.66,0 138.71,26.61 191.89,79.59 53,53.17 79.59,117.43 79.59,192.49l0 327.73c0,15.34 -5.34,28.04 -16.18,38.48 -10.41,10.84 -23.11,16.15 -38.25,16.15l-1.21 0c-15.14,0 -28.24,-5.31 -39.09,-16.15 -10.64,-10.44 -16.15,-23.14 -16.15,-38.48l0 -327.73c0,-44.39 -15.57,-82.23 -46.65,-113.95 -31.72,-31.49 -69.56,-47.23 -113.95,-47.23 -44.8,0 -82.84,15.74 -114.36,47.23 -31.28,31.72 -46.85,69.56 -46.85,113.95l0 327.73z"/>
  <path id="5" class="fil1" d="M4295.28 12021.47c-59.93,0 -111.08,21.08 -153.41,63.41 -41.96,42.36 -63.04,93.48 -63.04,153.44 0,59.53 21.08,110.47 63.04,152.8 42.33,42.37 93.48,63.62 153.41,63.62 59.93,0 110.88,-21.25 152.83,-63.62 42.33,-42.33 63.41,-93.27 63.41,-152.8 0,-59.96 -21.08,-111.08 -63.41,-153.44 -41.95,-42.33 -92.9,-63.41 -152.83,-63.41zm272.7 -357.8c14.73,0 27.43,5.1 38.27,15.54 10.81,10.85 16.15,23.72 16.15,38.88l0 520.23c-0.41,90 -32.53,166.72 -96.35,230.13 -64.05,63.62 -140.95,95.34 -230.77,95.34 -90.41,0 -167.53,-31.92 -231.38,-95.94 -64.02,-63.82 -95.94,-140.95 -95.94,-231.38 0,-90.21 31.92,-167.33 95.94,-231.18 63.85,-64.02 140.97,-95.94 231.38,-95.94 82.23,0 154.45,27.42 216.24,82.05l0 -273.31c0,-15.16 5.51,-28.03 16.15,-38.88 10.85,-10.44 23.75,-15.54 38.48,-15.54l1.83 0z"/>
  <path id="6" class="fil1" d="M5191.86 12021.47c67.09,0 122.13,25.77 165.3,77.33l-379.28 171.21c-1.63,-10.2 -2.47,-20.84 -2.47,-31.69 0,-59.96 21.08,-111.08 63.04,-153.44 42.33,-42.33 93.48,-63.41 153.41,-63.41zm297.26 78.95c-25.98,-57.06 -65.47,-103.1 -118.65,-137.87 -54.02,-35.4 -113.55,-53.2 -178.61,-53.2 -90.41,0 -167.53,31.92 -231.38,95.94 -64.02,63.85 -95.94,140.97 -95.94,231.18 0,90.43 31.92,167.56 95.94,231.38 63.85,64.02 140.97,95.94 231.38,95.94 70.17,0 134.01,-20.67 191.08,-61.79 56.04,-39.9 95.13,-92.26 117.63,-156.89 6.35,-18.01 4.09,-34.59 -6.76,-49.93 -11.04,-15.54 -26.18,-23.31 -44.79,-23.31 -26.39,0 -43.99,12.47 -52.78,37.23 -14.93,42.77 -40.7,77.53 -77.32,104.32 -38.07,27.43 -80.41,41.32 -127.06,41.32 -70.37,0 -127.03,-27.6 -170.2,-82.84 33.55,-15.13 106.79,-48.28 219.93,-99.42 91.01,-41.12 164.66,-74.26 220.5,-99.43 13.92,-6.35 23.55,-16.58 28.85,-30.67 5.13,-14.33 4.53,-28.24 -1.82,-41.96z"/>
  <path id="7" class="fil1" d="M5998.44 11909.35c-68.31,0 -126.42,23.94 -174.29,71.82 -47.26,48.07 -71.21,106.17 -72.02,174.49l0 353.5c0,15.34 5.33,28.04 16.18,38.48 10.84,10.84 23.51,16.15 38.44,16.15l1.66 0c14.93,0 27.6,-5.31 38.44,-16.15 10.85,-10.44 16.16,-23.14 16.16,-38.48l0 -353.5c0.4,-37.64 13.51,-69.56 39.49,-95.95 26.38,-26.38 58.3,-39.46 95.94,-39.46l34.16 0c15.13,0 28.24,-5.54 38.88,-16.18 10.44,-10.44 15.74,-23.31 15.74,-38.45l0 -1.24c0,-15.14 -5.3,-28.01 -15.74,-38.86 -10.64,-10.84 -23.75,-16.17 -38.88,-16.17l-34.16 0z"/>
  <path id="8" class="fil1" d="M7039.91 11909.35c33.95,0 66.89,5.13 98.81,15.57 25.58,7.97 38.45,25.37 38.45,52.16l0 2.87c0,18.41 -7.57,33.14 -22.3,43.75 -15.13,11.28 -31.48,14.12 -49.08,8.41 -21.29,-7.16 -43.18,-10.64 -65.88,-10.64 -59.93,0 -111.08,21.08 -153.41,63.41 -41.96,42.36 -63.04,93.48 -63.04,153.44 0,59.53 21.08,110.47 63.04,152.8 42.33,42.37 93.48,63.62 153.41,63.62 22.7,0 44.59,-3.48 65.88,-10.21 17.6,-5.53 33.95,-3.07 49.08,7.77 14.73,10.85 22.3,25.58 22.3,44.4 0,26.38 -12.87,43.78 -38.45,52.16 -31.92,10.03 -64.86,14.93 -98.81,14.93 -90.41,0 -167.53,-31.92 -231.38,-95.94 -64.02,-63.82 -95.94,-140.95 -95.94,-231.38 0,-90.21 31.92,-167.33 95.94,-231.18 63.85,-64.02 140.97,-95.94 231.38,-95.94z"/>
  <path id="9" class="fil1" d="M7728.65 12021.47c59.94,0 110.88,21.08 152.84,63.41 42.33,42.36 63.41,93.48 63.41,153.44 0,59.53 -21.08,110.47 -63.41,152.8 -41.96,42.37 -92.9,63.62 -152.84,63.62 -59.93,0 -111.08,-21.25 -153.41,-63.62 -41.95,-42.33 -63.03,-93.27 -63.03,-152.8 0,-59.96 21.08,-111.08 63.03,-153.44 42.33,-42.33 93.48,-63.41 153.41,-63.41zm0 -112.12c-90.4,0 -167.53,31.92 -231.38,95.94 -64.02,63.85 -95.94,140.97 -95.94,231.18 0,90.43 31.92,167.56 95.94,231.38 63.85,64.02 140.98,95.94 231.38,95.94 90.24,0 167.36,-31.92 231.38,-95.94 63.82,-63.82 95.75,-140.95 95.75,-231.38 0,-90.21 -31.93,-167.33 -95.75,-231.18 -64.02,-64.02 -141.14,-95.94 -231.38,-95.94z"/>
  <path id="10" class="fil1" d="M8408.79 12509.16c0,15.34 -5.31,28.04 -16.15,38.48 -10.85,10.84 -23.52,16.15 -38.45,16.15l-1.65 0c-14.93,0 -27.61,-5.31 -38.45,-16.15 -10.84,-10.44 -16.18,-23.14 -16.18,-38.48l0 -329.55c0,-74.26 26.39,-138.11 79.19,-191.28 52.77,-52.57 116.38,-78.98 191.07,-78.98 89.19,0 160.78,35.6 215.2,106.58 54.02,-70.98 125.41,-106.58 214.59,-106.58 74.67,0 138.51,26.41 191.08,78.98 52.77,53.17 79.16,117.02 79.16,191.28l0 329.55c0,15.34 -5.11,28.04 -15.54,38.48 -10.85,10.84 -23.72,16.15 -38.86,16.15l-1.24 0c-15.34,0 -28.01,-5.31 -38.45,-16.15 -10.84,-10.44 -16.15,-23.14 -16.15,-38.48l0 -329.55c0,-43.99 -15.57,-81.42 -46.65,-112.74 -31.32,-31.08 -68.95,-46.62 -113.35,-46.62 -43.98,0 -81.62,15.54 -112.7,46.62 -31.11,31.32 -46.65,68.75 -46.65,112.74l0 329.55c0,15.34 -5.54,28.04 -16.35,38.48 -10.24,10.84 -23.14,16.15 -38.28,16.15l-1.22 0c-15.13,0 -28.24,-5.31 -38.88,-16.15 -10.84,-10.44 -16.15,-23.14 -16.15,-38.48l0 -329.55c0,-43.99 -15.74,-81.42 -46.85,-112.74 -31.09,-31.08 -68.72,-46.62 -112.71,-46.62 -43.98,0 -81.44,15.54 -112.53,46.62 -31.28,31.32 -46.85,68.75 -46.85,112.74l0 329.55z"/>
  <path id="11" class="fil1" d="M10292.91 12021.47c59.93,0 110.87,21.08 152.83,63.41 42.33,42.36 63.41,93.48 63.41,153.44 0,59.53 -21.08,110.47 -63.41,152.8 -41.96,42.37 -92.9,63.62 -152.83,63.62 -59.94,0 -111.08,-21.25 -153.44,-63.62 -41.93,-42.33 -63.01,-93.27 -63.01,-152.8 0,-59.96 21.08,-111.08 63.01,-153.44 42.36,-42.33 93.5,-63.41 153.44,-63.41zm-272.7 -357.8c-14.93,0 -27.6,5.1 -38.45,15.54 -10.84,10.85 -16.18,23.72 -16.18,38.88l0 520.23c0.41,90 32.54,166.72 96.56,230.13 63.44,63.62 140.36,95.34 230.77,95.34 90.23,0 167.33,-31.92 231.17,-95.94 64.02,-63.82 95.95,-140.95 95.95,-231.38 0,-90.21 -31.93,-167.33 -95.95,-231.18 -63.84,-64.02 -140.94,-95.94 -231.17,-95.94 -82.84,0 -154.86,27.42 -216.45,82.05l0 -273.31c0,-15.16 -5.31,-28.03 -16.15,-38.88 -10.84,-10.44 -23.51,-15.54 -38.45,-15.54l-1.65 0z"/>
  <path id="12" class="fil1" d="M11108.48 11909.35c-68.32,0 -126.42,23.94 -174.29,71.82 -47.26,48.07 -71.21,106.17 -72.03,174.49l0 353.5c0,15.34 5.34,28.04 16.18,38.48 10.85,10.84 23.52,16.15 38.45,16.15l1.65 0c14.94,0 27.61,-5.31 38.45,-16.15 10.84,-10.44 16.15,-23.14 16.15,-38.48l0 -353.5c0.41,-37.64 13.51,-69.56 39.49,-95.95 26.39,-26.38 58.31,-39.46 95.95,-39.46l34.15 0c15.14,0 28.24,-5.54 38.88,-16.18 10.44,-10.44 15.75,-23.31 15.75,-38.45l0 -1.24c0,-15.14 -5.31,-28.01 -15.75,-38.86 -10.64,-10.84 -23.74,-16.17 -38.88,-16.17l-34.15 0z"/>
  <path id="13" class="fil1" d="M6386.89 12447.17c18.61,0 34.35,6.55 47.23,19.46 12.7,12.87 19.05,28.41 19.05,46.82 0,18.21 -6.56,33.99 -19.46,46.86 -12.87,12.9 -28.41,19.43 -46.82,19.43 -18.21,0 -33.99,-6.53 -46.86,-19.43 -12.9,-12.87 -19.43,-28.65 -19.43,-46.86 0,-18.61 6.53,-34.35 19.43,-47.23 12.87,-12.7 28.65,-19.05 46.86,-19.05z"/>
  <path id="14" class="fil1" d="M9621.88 12447.17c18.61,0 34.36,6.55 47.23,19.46 12.7,12.87 19.05,28.41 19.05,46.82 0,18.21 -6.55,33.99 -19.46,46.86 -12.87,12.9 -28.41,19.43 -46.82,19.43 -18.21,0 -33.98,-6.53 -46.86,-19.43 -12.9,-12.87 -19.42,-28.65 -19.42,-46.86 0,-18.61 6.52,-34.35 19.42,-47.23 12.88,-12.7 28.65,-19.05 46.86,-19.05z"/>
 </g>
</svg>
