<?xml version="1.0" encoding="UTF-8"?>
<!DOCTYPE svg PUBLIC "-//W3C//DTD SVG 1.1//EN" "http://www.w3.org/Graphics/SVG/1.1/DTD/svg11.dtd">
<!-- Creator: CorelDRAW 2020 (64 Bit) -->
<svg xmlns="http://www.w3.org/2000/svg" xml:space="preserve" width="491px" height="526px" version="1.1" style="shape-rendering:geometricPrecision; text-rendering:geometricPrecision; image-rendering:optimizeQuality; fill-rule:evenodd; clip-rule:evenodd"
viewBox="0 0 160.76 172.2"
 xmlns:xlink="http://www.w3.org/1999/xlink"
 xmlns:xodm="http://www.corel.com/coreldraw/odm/2003">
 <defs>
  <style type="text/css">
   <![CDATA[
    .fil0 {fill:#474648}
    .fil1 {fill:#474648;fill-rule:nonzero}
   ]]>
  </style>
 </defs>
 <g id="Camada_x0020_1">
  <metadata id="CorelCorpID_0Corel-Layer"/>
  <g id="_2027591177472">
   <path class="fil0" d="M0 23.37c0.11,17.42 0.29,34.83 0.42,52.23 0.13,17.41 0.54,34.83 0.76,52.26 0.65,0.72 0.83,1.29 1.56,1.88 0.72,0.57 1.58,0.92 2.45,1.44 9.02,1.16 18.08,2.21 27.1,3.45 9.03,1.23 18.07,2.77 27.1,4.15 -0.31,-23.96 -0.03,-0.03 -0.31,-23.96 -54.97,-4.8 0,0 -27.78,-2.7 -0.42,-23.08 0,0 -0.42,-23.08 13.34,0.56 13.39,0.57 16.93,0.72 3.55,0.14 10.6,0.39 37.92,1.52 -0.45,-27.55 0.14,0 -0.31,-27.55 -9.13,0.06 -18.25,0.28 -27.38,0.47 -9.12,0.19 -18.25,0.33 -27.38,0.56 -0.12,-23.46 0,0 -0.12,-23.46 42.56,-3.45 42.56,-3.45 42.56,-3.45 0,0 0,0 42.58,-3.25 -0.03,-9.88 -0.06,-19.74 -0.05,-29.64 -18.71,2.6 -37.43,4.89 -56.15,7.5 -18.72,2.61 -37.43,5.23 -56.15,7.83 -0.34,0.27 -0.71,0.43 -1.05,0.69 -0.41,0.29 -0.62,0.47 -0.93,0.71 -0.79,0.72 -0.75,1.03 -1.35,1.68z"/>
   <path class="fil0" d="M118.81 120.34c-14.72,-1.24 -29.14,-2.61 -39.88,-3.62 -10.72,-1.01 -17.79,-1.61 -17.79,-1.61 0.31,23.96 -0.02,-0.06 0.31,23.96 14.81,2.17 29.62,4.39 44.47,6.46 14.8,2.06 29.65,3.8 44.48,5.69 0.54,-0.26 1.24,-0.36 1.63,-0.62 0.99,-0.63 1.7,-1.38 2.23,-2.37 0.26,-0.52 0.37,-1.24 0.65,-1.7 -0.37,-23.66 -1,-47.32 -1.18,-70.94 -0.18,-23.62 -0.12,-47.24 -0.17,-70.9 -0.25,-0.46 -0.32,-1.16 -0.57,-1.7 -0.25,-0.52 -0.57,-0.88 -0.84,-1.26 -0.83,-1.13 -1.24,-0.94 -2.4,-1.73 -10.64,1.47 -21.09,3.27 -31.73,4.73 0.09,57.82 0.09,57.82 0.09,57.82 0,0 0,0 0.7,57.79z"/>
   <path class="fil0" d="M32.88 62.53c29.5,-0.64 29.48,-0.65 29,-0.65 -0.46,0 -1.42,-0.03 26.16,-0.63 0.28,34.26 0,0 0.26,32.64 -27.87,-1.26 -27.87,-1.26 -27.8,-1.26 0.08,0 0.22,0 -27.34,-1.29 0.4,19.26 -0.05,0.08 0.4,19.26 41.32,3.86 41.32,3.86 41.32,3.86 0,0 0.03,0 41.4,3.74 -0.68,-40.78 -0.68,-40.78 -0.68,-40.78 0,0 0,0 -0.12,-40.75 -41.33,2.93 -41.33,2.93 -41.33,2.93 0,0 0,0 -41.32,3.13 0.05,19.8 0.09,0.92 0.05,19.8z"/>
  </g>
  <path class="fil1" d="M6.46 160.2c0.89,0 1.63,0.35 2.2,1.03l-5.05 2.29c-0.02,-0.14 -0.03,-0.28 -0.03,-0.43 0,-0.8 0.28,-1.48 0.84,-2.04 0.56,-0.57 1.24,-0.85 2.04,-0.85zm3.96 1.06c-0.34,-0.76 -0.87,-1.38 -1.58,-1.84 -0.72,-0.47 -1.51,-0.71 -2.38,-0.71 -1.2,0 -2.23,0.42 -3.08,1.28 -0.86,0.85 -1.28,1.88 -1.28,3.08 0,1.2 0.42,2.23 1.28,3.08 0.85,0.86 1.88,1.28 3.08,1.28 0.94,0 1.79,-0.27 2.55,-0.82 0.74,-0.53 1.26,-1.23 1.56,-2.09 0.09,-0.24 0.06,-0.46 -0.09,-0.67 -0.14,-0.21 -0.34,-0.31 -0.59,-0.31 -0.35,0 -0.59,0.17 -0.71,0.5 -0.2,0.57 -0.54,1.03 -1.03,1.39 -0.5,0.36 -1.07,0.55 -1.69,0.55 -0.94,0 -1.69,-0.37 -2.27,-1.11 0.45,-0.2 1.43,-0.64 2.93,-1.32 1.22,-0.55 2.2,-0.99 2.94,-1.33 0.19,-0.08 0.32,-0.22 0.39,-0.4 0.06,-0.2 0.06,-0.38 -0.03,-0.56z"/>
  <path id="1" class="fil1" d="M15 155.44c0.19,0 0.36,0.06 0.51,0.2 0.14,0.15 0.21,0.32 0.21,0.52l0 10.54c0,0.21 -0.07,0.38 -0.21,0.52 -0.15,0.14 -0.32,0.21 -0.51,0.21l-0.03 0c-0.19,0 -0.36,-0.07 -0.51,-0.21 -0.14,-0.14 -0.21,-0.31 -0.21,-0.52l0 -10.54c0,-0.2 0.07,-0.37 0.21,-0.52 0.15,-0.14 0.32,-0.2 0.51,-0.2l0.03 0z"/>
  <path id="2" class="fil1" d="M20.99 159.44c0,-0.2 -0.07,-0.37 -0.22,-0.51 -0.14,-0.15 -0.31,-0.22 -0.51,-0.22l-0.02 0c-0.2,0 -0.37,0.07 -0.52,0.22 -0.14,0.14 -0.21,0.31 -0.21,0.51l0 4.37c0,1 0.35,1.85 1.06,2.56 0.71,0.71 1.56,1.06 2.57,1.06 0.99,0 1.84,-0.35 2.55,-1.06 0.71,-0.71 1.06,-1.56 1.06,-2.56l0 -4.37c0,-0.2 -0.07,-0.37 -0.21,-0.51 -0.14,-0.15 -0.31,-0.22 -0.51,-0.22l-0.02 0c-0.2,0 -0.37,0.07 -0.52,0.22 -0.14,0.14 -0.21,0.31 -0.21,0.51l0 4.37c0,0.59 -0.21,1.1 -0.63,1.52 -0.42,0.42 -0.92,0.62 -1.51,0.62 -0.6,0 -1.11,-0.2 -1.53,-0.62 -0.42,-0.42 -0.62,-0.93 -0.62,-1.52l0 -4.37z"/>
  <path id="3" class="fil1" d="M34.58 158.71c1.2,0 2.23,0.42 3.08,1.28 0.86,0.85 1.28,1.88 1.28,3.08l0 3.63c0,0.21 -0.07,0.38 -0.21,0.52 -0.15,0.14 -0.32,0.21 -0.51,0.21l-0.03 0c-0.19,0 -0.37,-0.07 -0.51,-0.21 -0.14,-0.14 -0.22,-0.31 -0.22,-0.52l0 -0.36c-0.82,0.73 -1.78,1.09 -2.88,1.09 -1.2,0 -2.23,-0.42 -3.08,-1.28 -0.85,-0.85 -1.28,-1.88 -1.28,-3.08 0,-1.2 0.43,-2.23 1.28,-3.08 0.85,-0.86 1.88,-1.28 3.08,-1.28zm0 1.48c-0.8,0 -1.48,0.28 -2.04,0.84 -0.56,0.57 -0.84,1.25 -0.84,2.04 0,0.8 0.28,1.48 0.84,2.04 0.56,0.56 1.24,0.84 2.04,0.84 0.8,0 1.48,-0.28 2.04,-0.84 0.56,-0.56 0.84,-1.24 0.84,-2.04 0,-0.79 -0.28,-1.47 -0.84,-2.04 -0.56,-0.56 -1.24,-0.84 -2.04,-0.84z"/>
  <path id="4" class="fil1" d="M43.89 166.7c0,0.21 -0.07,0.38 -0.22,0.52 -0.14,0.14 -0.31,0.21 -0.51,0.21l-0.02 0c-0.2,0 -0.37,-0.07 -0.52,-0.21 -0.14,-0.14 -0.21,-0.31 -0.21,-0.52l0 -4.36c0,-1 0.35,-1.86 1.06,-2.57 0.71,-0.71 1.56,-1.06 2.56,-1.06 1,0 1.85,0.35 2.56,1.06 0.71,0.71 1.06,1.57 1.06,2.57l0 4.36c0,0.21 -0.07,0.38 -0.21,0.52 -0.14,0.14 -0.31,0.21 -0.51,0.21l-0.02 0c-0.2,0 -0.38,-0.07 -0.52,-0.21 -0.14,-0.14 -0.22,-0.31 -0.22,-0.52l0 -4.36c0,-0.6 -0.2,-1.1 -0.62,-1.52 -0.42,-0.42 -0.92,-0.63 -1.52,-0.63 -0.59,0 -1.1,0.21 -1.52,0.63 -0.42,0.42 -0.62,0.92 -0.62,1.52l0 4.36z"/>
  <path id="5" class="fil1" d="M57.24 160.2c-0.8,0 -1.48,0.28 -2.04,0.85 -0.56,0.56 -0.84,1.24 -0.84,2.04 0,0.8 0.28,1.48 0.84,2.04 0.56,0.56 1.24,0.85 2.04,0.85 0.8,0 1.48,-0.29 2.04,-0.85 0.56,-0.56 0.84,-1.24 0.84,-2.04 0,-0.8 -0.28,-1.48 -0.84,-2.04 -0.56,-0.57 -1.24,-0.85 -2.04,-0.85zm3.63 -4.76c0.2,0 0.37,0.06 0.52,0.2 0.14,0.15 0.21,0.32 0.21,0.52l0 6.93c-0.01,1.2 -0.43,2.23 -1.28,3.07 -0.86,0.85 -1.88,1.27 -3.08,1.27 -1.2,0 -2.23,-0.42 -3.08,-1.28 -0.86,-0.85 -1.28,-1.88 -1.28,-3.08 0,-1.2 0.42,-2.23 1.28,-3.08 0.85,-0.86 1.88,-1.28 3.08,-1.28 1.1,0 2.06,0.37 2.88,1.09l0 -3.64c0,-0.2 0.08,-0.37 0.22,-0.52 0.14,-0.14 0.31,-0.2 0.51,-0.2l0.02 0z"/>
  <path id="6" class="fil1" d="M69.19 160.2c0.89,0 1.63,0.35 2.2,1.03l-5.05 2.29c-0.02,-0.14 -0.04,-0.28 -0.04,-0.43 0,-0.8 0.29,-1.48 0.84,-2.04 0.57,-0.57 1.25,-0.85 2.05,-0.85zm3.96 1.06c-0.35,-0.76 -0.87,-1.38 -1.58,-1.84 -0.72,-0.47 -1.51,-0.71 -2.38,-0.71 -1.21,0 -2.23,0.42 -3.08,1.28 -0.86,0.85 -1.28,1.88 -1.28,3.08 0,1.2 0.42,2.23 1.28,3.08 0.85,0.86 1.87,1.28 3.08,1.28 0.93,0 1.79,-0.27 2.55,-0.82 0.74,-0.53 1.26,-1.23 1.56,-2.09 0.09,-0.24 0.06,-0.46 -0.09,-0.67 -0.14,-0.21 -0.35,-0.31 -0.59,-0.31 -0.36,0 -0.59,0.17 -0.71,0.5 -0.2,0.57 -0.54,1.03 -1.03,1.39 -0.5,0.36 -1.07,0.55 -1.69,0.55 -0.94,0 -1.69,-0.37 -2.27,-1.11 0.45,-0.2 1.42,-0.64 2.93,-1.32 1.21,-0.55 2.2,-0.99 2.94,-1.33 0.19,-0.08 0.31,-0.22 0.38,-0.4 0.07,-0.2 0.07,-0.38 -0.02,-0.56z"/>
  <path id="7" class="fil1" d="M79.94 158.71c-0.91,0 -1.69,0.32 -2.32,0.96 -0.63,0.64 -0.95,1.41 -0.96,2.32l0 4.71c0,0.21 0.07,0.38 0.21,0.52 0.15,0.14 0.31,0.21 0.51,0.21l0.03 0c0.19,0 0.36,-0.07 0.51,-0.21 0.14,-0.14 0.21,-0.31 0.21,-0.52l0 -4.71c0.01,-0.5 0.18,-0.92 0.53,-1.28 0.35,-0.35 0.78,-0.52 1.28,-0.52l0.45 0c0.2,0 0.38,-0.08 0.52,-0.22 0.14,-0.14 0.21,-0.31 0.21,-0.51l0 -0.02c0,-0.2 -0.07,-0.37 -0.21,-0.51 -0.14,-0.15 -0.32,-0.22 -0.52,-0.22l-0.45 0z"/>
  <path id="8" class="fil1" d="M93.82 158.71c0.45,0 0.89,0.07 1.31,0.21 0.34,0.1 0.52,0.34 0.52,0.69l0 0.04c0,0.25 -0.1,0.44 -0.3,0.58 -0.2,0.15 -0.42,0.19 -0.65,0.12 -0.29,-0.1 -0.58,-0.15 -0.88,-0.15 -0.8,0 -1.48,0.28 -2.05,0.85 -0.56,0.56 -0.84,1.24 -0.84,2.04 0,0.8 0.28,1.48 0.84,2.04 0.57,0.56 1.25,0.85 2.05,0.85 0.3,0 0.59,-0.05 0.88,-0.14 0.23,-0.07 0.45,-0.04 0.65,0.11 0.2,0.14 0.3,0.34 0.3,0.59 0,0.35 -0.18,0.58 -0.52,0.69 -0.42,0.14 -0.86,0.2 -1.31,0.2 -1.21,0 -2.24,-0.42 -3.09,-1.28 -0.85,-0.85 -1.27,-1.88 -1.27,-3.08 0,-1.2 0.42,-2.23 1.27,-3.08 0.85,-0.86 1.88,-1.28 3.09,-1.28z"/>
  <path id="9" class="fil1" d="M103 160.2c0.79,0 1.47,0.28 2.03,0.85 0.57,0.56 0.85,1.24 0.85,2.04 0,0.8 -0.28,1.48 -0.85,2.04 -0.56,0.56 -1.24,0.85 -2.03,0.85 -0.8,0 -1.48,-0.29 -2.05,-0.85 -0.56,-0.56 -0.84,-1.24 -0.84,-2.04 0,-0.8 0.28,-1.48 0.84,-2.04 0.57,-0.57 1.25,-0.85 2.05,-0.85zm0 -1.49c-1.21,0 -2.24,0.42 -3.09,1.28 -0.85,0.85 -1.28,1.88 -1.28,3.08 0,1.2 0.43,2.23 1.28,3.08 0.85,0.86 1.88,1.28 3.09,1.28 1.2,0 2.23,-0.42 3.08,-1.28 0.85,-0.85 1.28,-1.88 1.28,-3.08 0,-1.2 -0.43,-2.23 -1.28,-3.08 -0.85,-0.86 -1.88,-1.28 -3.08,-1.28z"/>
  <path id="10" class="fil1" d="M112.06 166.7c0,0.21 -0.07,0.38 -0.22,0.52 -0.14,0.14 -0.31,0.21 -0.51,0.21l-0.02 0c-0.2,0 -0.37,-0.07 -0.51,-0.21 -0.15,-0.14 -0.22,-0.31 -0.22,-0.52l0 -4.39c0,-0.99 0.35,-1.84 1.06,-2.55 0.7,-0.7 1.55,-1.05 2.54,-1.05 1.19,0 2.15,0.47 2.87,1.42 0.72,-0.95 1.67,-1.42 2.86,-1.42 1,0 1.85,0.35 2.55,1.05 0.7,0.71 1.05,1.56 1.05,2.55l0 4.39c0,0.21 -0.07,0.38 -0.2,0.52 -0.15,0.14 -0.32,0.21 -0.52,0.21l-0.02 0c-0.2,0 -0.37,-0.07 -0.51,-0.21 -0.15,-0.14 -0.22,-0.31 -0.22,-0.52l0 -4.39c0,-0.58 -0.2,-1.08 -0.62,-1.5 -0.42,-0.42 -0.92,-0.62 -1.51,-0.62 -0.59,0 -1.09,0.2 -1.5,0.62 -0.42,0.42 -0.62,0.92 -0.62,1.5l0 4.39c0,0.21 -0.08,0.38 -0.22,0.52 -0.14,0.14 -0.31,0.21 -0.51,0.21l-0.02 0c-0.2,0 -0.37,-0.07 -0.51,-0.21 -0.15,-0.14 -0.22,-0.31 -0.22,-0.52l0 -4.39c0,-0.58 -0.21,-1.08 -0.62,-1.5 -0.42,-0.42 -0.92,-0.62 -1.51,-0.62 -0.58,0 -1.08,0.2 -1.5,0.62 -0.41,0.42 -0.62,0.92 -0.62,1.5l0 4.39z"/>
  <path id="11" class="fil1" d="M137.17 160.2c0.8,0 1.48,0.28 2.03,0.85 0.57,0.56 0.85,1.24 0.85,2.04 0,0.8 -0.28,1.48 -0.85,2.04 -0.55,0.56 -1.23,0.85 -2.03,0.85 -0.8,0 -1.48,-0.29 -2.05,-0.85 -0.56,-0.56 -0.84,-1.24 -0.84,-2.04 0,-0.8 0.28,-1.48 0.84,-2.04 0.57,-0.57 1.25,-0.85 2.05,-0.85zm-3.64 -4.76c-0.19,0 -0.36,0.06 -0.51,0.2 -0.14,0.15 -0.21,0.32 -0.21,0.52l0 6.93c0,1.2 0.43,2.23 1.28,3.07 0.85,0.85 1.87,1.27 3.08,1.27 1.2,0 2.23,-0.42 3.08,-1.28 0.85,-0.85 1.28,-1.88 1.28,-3.08 0,-1.2 -0.43,-2.23 -1.28,-3.08 -0.85,-0.86 -1.88,-1.28 -3.08,-1.28 -1.11,0 -2.07,0.37 -2.89,1.09l0 -3.64c0,-0.2 -0.07,-0.37 -0.21,-0.52 -0.15,-0.14 -0.31,-0.2 -0.51,-0.2l-0.03 0z"/>
  <path id="12" class="fil1" d="M148.04 158.71c-0.91,0 -1.69,0.32 -2.33,0.96 -0.63,0.64 -0.94,1.41 -0.96,2.32l0 4.71c0,0.21 0.08,0.38 0.22,0.52 0.14,0.14 0.31,0.21 0.51,0.21l0.02 0c0.2,0 0.37,-0.07 0.52,-0.21 0.14,-0.14 0.21,-0.31 0.21,-0.52l0 -4.71c0.01,-0.5 0.18,-0.92 0.53,-1.28 0.35,-0.35 0.78,-0.52 1.28,-0.52l0.45 0c0.2,0 0.38,-0.08 0.52,-0.22 0.14,-0.14 0.21,-0.31 0.21,-0.51l0 -0.02c0,-0.2 -0.07,-0.37 -0.21,-0.51 -0.14,-0.15 -0.32,-0.22 -0.52,-0.22l-0.45 0z"/>
  <path id="13" class="fil1" d="M85.11 165.88c0.25,0 0.46,0.08 0.63,0.26 0.17,0.17 0.26,0.37 0.26,0.62 0,0.24 -0.09,0.45 -0.26,0.62 -0.17,0.18 -0.38,0.26 -0.63,0.26 -0.24,0 -0.45,-0.08 -0.62,-0.26 -0.17,-0.17 -0.26,-0.38 -0.26,-0.62 0,-0.25 0.09,-0.46 0.26,-0.63 0.17,-0.17 0.38,-0.25 0.62,-0.25z"/>
  <path id="14" class="fil1" d="M128.23 165.88c0.24,0 0.45,0.08 0.63,0.26 0.16,0.17 0.25,0.37 0.25,0.62 0,0.24 -0.09,0.45 -0.26,0.62 -0.17,0.18 -0.38,0.26 -0.62,0.26 -0.25,0 -0.46,-0.08 -0.63,-0.26 -0.17,-0.17 -0.26,-0.38 -0.26,-0.62 0,-0.25 0.09,-0.46 0.26,-0.63 0.17,-0.17 0.38,-0.25 0.63,-0.25z"/>
 </g>
</svg>
