<?xml version="1.0" encoding="UTF-8"?>
<!DOCTYPE svg PUBLIC "-//W3C//DTD SVG 1.1//EN" "http://www.w3.org/Graphics/SVG/1.1/DTD/svg11.dtd">
<!-- Creator: CorelDRAW 2020 (64 Bit) -->
<svg xmlns="http://www.w3.org/2000/svg" xml:space="preserve" width="500px" height="500px" version="1.1" style="shape-rendering:geometricPrecision; text-rendering:geometricPrecision; image-rendering:optimizeQuality; fill-rule:evenodd; clip-rule:evenodd"
viewBox="0 0 122.2 122.2"
 xmlns:xlink="http://www.w3.org/1999/xlink"
 xmlns:xodm="http://www.corel.com/coreldraw/odm/2003">
 <defs>
  <style type="text/css">
   <![CDATA[
    .fil2 {fill:#DFE6E9}
    .fil1 {fill:#B2BEC3}
    .fil0 {fill:#636E73}
   ]]>
  </style>
 </defs>
 <g id="Camada_x0020_1">
  <metadata id="CorelCorpID_0Corel-Layer"/>
  <path class="fil0" d="M0.28 62.99l59.02 58.89c0.62,0.09 1.02,0.33 1.6,0.32 0.55,-0.01 1.04,-0.25 1.63,-0.35l22.17 -22.14c-11.78,-11.73 -0.03,0 -11.78,-11.73 -22.53,22.44 0,0 -11.38,11.34 -12.14,-12.13 0,0 -12.14,-12.13 10.97,-10.89 0.1,-0.1 22.52,-22.43 -12.92,-12.68 0.05,-0.06 -12.86,-12.74l-22.45 22.43c-12.31,-12.35 0,0 -12.31,-12.35 34.79,-34.92 0,0 34.79,-34.92l-12.92 -12.92 -45.99 45.88c-0.02,0.25 -0.11,0.47 -0.14,0.73 -0.04,0.29 -0.04,0.46 -0.04,0.71 0,0.67 0.21,0.83 0.28,1.41z"/>
  <path class="fil1" d="M97.39 63.58c-12.05,12.02 -23.59,23.59 -23.59,23.59 11.74,11.71 -0.03,-0.02 11.74,11.71l36.3 -36.43c0.08,-0.35 0.28,-0.72 0.31,-1 0.1,-0.72 0.05,-1.36 -0.18,-2 -0.11,-0.34 -0.35,-0.68 -0.44,-0.99l-57.82 -57.69c-0.31,-0.1 -0.62,-0.36 -0.96,-0.49 -0.32,-0.13 -0.62,-0.17 -0.9,-0.22 -0.86,-0.17 -0.96,0.06 -1.82,0.15 -4.36,4.35 -8.49,8.76 -12.85,13.11 50.21,50.26 0,0 50.21,50.26z"/>
  <path class="fil2" d="M36.4 72.41c24.29,-24.06 0,0 22.61,-22.59 15.84,15.81 0,0 15.1,15.06 -22.86,22.82 0,0 -22.61,22.57 10.08,10.05 0.03,0.06 10.08,10.05 33.92,-33.73 0,0 33.94,-33.75 -35.61,-35.58 0,0 -35.61,-35.58 -33.83,33.85 0,0 -33.83,33.85 10.32,10.39 0.51,0.43 10.32,10.39z"/>
 </g>
</svg>
