<?xml version="1.0" encoding="utf-8"?>
<!-- Generator: Adobe Illustrator 22.0.0, SVG Export Plug-In . SVG Version: 6.00 Build 0)  -->
<svg version="1.1" id="vetor" xmlns="http://www.w3.org/2000/svg" xmlns:xlink="http://www.w3.org/1999/xlink" x="0px" y="0px"
	 viewBox="0 0 528.9 556" style="enable-background:new 0 0 528.9 556;" xml:space="preserve">
<style type="text/css">
	.st0{fill:#46948D;}
	.st1{fill:#F2E094;}
	.st2{fill:#FFFFFF;}
	.st3{fill:#C6B8AB;}
	.st4{fill:#372D1D;}
	.st5{fill:#B6ED3E;}
	.st6{fill:#F5E6A9;}
	.st7{fill:#675334;}
	.st8{fill:#DDD6D4;}
	.st9{fill:#7A6745;}
	.st10{fill:#74F3E7;}
</style>
<g>
	<g>
		<path d="M231.1,499.4c-0.3,0-0.6,0-0.9-0.1c-1.7-0.3-3.1-1.2-4.1-2.8c-2.5,2.6-3.7,5-3.2,6.6c0.5,1.9,2.9,2.5,3.9,2.6
			c9.4,1.5,12.7-6.4,14.7-11.2c0.2-0.6,0.5-1.1,0.7-1.6c0,0,0,0,0,0C238.3,497.1,234.4,499.4,231.1,499.4z"/>
		<path class="st0" d="M239,456.4c2.9-6.3,5.8-12.6,7.9-19.1c0.6-1.6,0.9-3.3,1.4-4.9c0.4-1.7,0.7-3.3,1-5c0.2-1.7,0.4-3.4,0.5-5.1
			c0.1-1.7,0.1-3.4,0.1-5.1c-0.1-6.8-1.1-13.7-2.4-20.4c-1.3-6.8-2.9-13.5-4.5-20.2c-1.6-6.7-3.3-13.5-4.6-20.3
			c-0.6-3.4-1.1-6.9-1.2-10.5c0-0.9,0-1.7,0.1-2.6c-3.6,2.3-6.9,10.8-9.9,18.4c-1,2.6-2,5.2-3.1,7.7c0.1,1.6,0,3.1-0.2,4.6
			c-0.3,1.7-0.6,3.4-1.2,5c-1,3.3-2.5,6.4-4.5,9.2c0.5-1.6,0.9-3.3,1.4-4.9c0.4-1.6,0.8-3.2,1.2-4.8c0.3-1.2,0.5-2.4,0.7-3.6
			c-0.3,0.6-0.6,1.1-1,1.7c-4.3,6.7-7.8,12-11,16.7c-1,1.5-2,3-3,4.5c7.6,7.6,16.6,14.9,25.6,21c1.1-4.7,1.6-10,1.7-16
			c0.1-4-0.1-8.1-0.2-12c-0.3-7.5-0.5-15.2,0.6-22.9l0.2,0c-0.2-1.5-0.2-3.1,0.1-4.6c0.4,1.6,0.9,3,1.4,4.5l0.1,0.3l1.3,4.1
			c0.5,1.5,0.9,3,1.4,4.5c0.4,1.5,0.9,3,1.3,4.6c-1.2-1.2-2-2.6-2.8-4c-0.6-1.2-1.1-2.5-1.6-3.9c-0.4,5.7-0.2,11.4,0,17.3
			c0.1,3.9,0.3,8,0.2,12.1c-0.2,13.7-2.9,24.2-8.3,32c-4.7,10.1-9.2,20.2-13.2,29.2c-3,6.7-5.8,13.1-8.2,18.2
			c-4.3,9.3-4.4,9.5-3.1,11c1,0.6,9.5,4.8,24.2-2.3c0.3-1.6,0.5-3.3,0.8-4.9c0.7-3.4,1.6-6.8,2.8-10.1
			C233.2,469,236.1,462.6,239,456.4z"/>
		<path class="st1" d="M238.1,494c-0.9,0.2-1.8,0.3-2.6,0.4c-1.8,0.1-3.6,0.1-5.4-0.2c-0.4-0.1-0.8-0.2-1.2-0.3
			c-0.5,0.4-0.9,0.8-1.3,1.1c0.7,1.3,1.7,2.1,2.9,2.3C232.6,497.6,235.3,496.4,238.1,494z"/>
		<path class="st2" d="M223.2,434.6c3.2-4,5.6-8.9,7.2-14.8c-8-5.3-16-11.8-23.2-18.4c0.2,0.7,0.5,1.3,0.7,2
			c0.7,1.9,1.5,3.7,2.5,5.5c0.9,1.8,1.9,3.5,3,5.2c1.1,1.7,2.2,3.4,3.4,5.1c-3.2-2.6-5.9-5.8-8.1-9.4c-2.1-3.5-3.7-7.3-4.6-11.2
			c-2,3-3.8,5.9-5.7,8.9c-2,3.2-4.7,7.7-3,11.3c0.9,1.9,2.6,3.2,4.8,4.7l17.1,11.5c1.3,0.8,2.7,1.7,3.9,1.3
			C222,435.9,222.6,435.4,223.2,434.6z"/>
		<path class="st3" d="M195.9,429.5C195.9,429.5,195.9,429.5,195.9,429.5C195.9,429.5,195.9,429.5,195.9,429.5z"/>
		<path class="st1" d="M195,421.6c-1.5,2.4-3,4.8-4.6,7.2c-0.9,1.4-1.8,2.7-3,4c-0.1,0.2-0.3,0.3-0.5,0.5l-0.3,0.2c0,0,0,0,0,0
			c-0.1,0.1-0.1,0.2-0.1,0.4c0,0.3,0.4,0.6,1,0.7c1.2,0.2,2.8-0.2,4.2-0.7c1.5-0.6,2.9-1.2,4.4-1.9c2.5-1.2,5-2.5,7.4-3.9l-4.4-2.9
			C197.8,424.1,196.2,423,195,421.6z M198.5,430.5c-0.5,0.3-0.9,0.7-1.6,0.9c-0.2,0.1-0.3,0.1-0.6,0.2c-0.1,0-0.2,0-0.4,0
			c-0.1,0-0.2,0-0.3,0c-0.4,0-0.8-0.1-1.3-0.5c-0.5-0.4-0.7-1.1-0.7-1.5c0-0.5,0.1-0.8,0.2-1.2c0.2-0.6,0.6-1.1,0.9-1.6
			c0.6-0.9,1.3-1.7,2.5-2.1c0.1,1.3-0.4,2.2-0.9,3.2c-0.2,0.5-0.4,0.9-0.5,1.2c0,0.1,0,0.2,0,0.2c0,0,0,0,0.1,0l0.1,0c0,0,0,0,0,0
			c0,0,0.1,0,0.2,0c0.3-0.1,0.8-0.3,1.2-0.5c0.9-0.4,1.8-0.9,3-1.1C200.1,428.9,199.4,429.8,198.5,430.5z"/>
		<path class="st2" d="M251.9,464c0.5-1.6,1-3.3,1.4-4.9c0.4-1.7,0.8-3.3,1-5c0.6-3.4,0.9-6.8,1.1-10.2c0.4-6.9,0.2-13.8-0.3-20.7
			c-0.9-13.8-3.1-27.5-5-41.2c-1-6.9-1.9-13.7-2.6-20.6c-0.3-3.5-0.6-6.9-0.7-10.4c-0.1-3.5-0.1-7,0.8-10.4c0.2,1.9,0.3,3.8,0.4,5.7
			c3.5-1.5,5.5-4.1,6.6-6.9l-13.5-8.1c0.1,1.6,0.2,3.7,0.3,4.9l0.1,1.7l-1.5-0.7c-0.1-0.1-0.2-0.1-0.4-0.2c-0.7,0.8-1.2,1.9-1.5,3
			c-0.4,1.5-0.5,3.2-0.5,4.9c0.1,3.4,0.6,6.8,1.2,10.1c1.3,6.8,3,13.5,4.6,20.2c1.7,6.7,3.3,13.5,4.6,20.3
			c1.3,6.8,2.3,13.8,2.5,20.8c0,1.8,0,3.5-0.1,5.3c-0.1,1.8-0.4,3.5-0.5,5.3c-0.4,1.7-0.6,3.5-1,5.2c-0.5,1.7-0.8,3.4-1.4,5.1
			c-2.1,6.7-5.1,13-8,19.3c-2.9,6.3-5.8,12.5-8,19c-1.1,3.2-2,6.6-2.7,9.9c-0.4,1.7-0.6,3.4-0.9,5.1l0,0.3c0,0.1,0,0.1,0,0.2
			c0,0.1,0,0.2,0.1,0.3c0.1,0.2,0.3,0.4,0.5,0.5c0.5,0.4,1.3,0.6,2.1,0.7c1.6,0.3,3.3,0.3,4.9,0.2c1.7-0.1,3.3-0.4,4.8-1
			c0.3-0.1,0.6-0.2,0.8-0.4c0,0,0.1-0.1,0.1-0.1l0,0c0,0,0.1,0,0.1,0l0.1-0.1c0,0,0,0,0,0c0,0,0,0,0-0.1l0.3-0.5
			c0.4-0.7,0.7-1.5,1.1-2.3c0.7-1.6,1.4-3.2,2-4.8C247.3,477,249.8,470.5,251.9,464z"/>
		<path class="st3" d="M369.8,380.4c-1,6.4-1.8,12.9-2.3,19.4C368.8,393.2,369.6,386.5,369.8,380.4z"/>
		<path class="st1" d="M377.5,376.4c0,0,0-0.1,0-0.1c0-1,0.5-1.7,1.1-2.2c-0.5-0.5-0.9-1.2-0.9-2.1c-0.1-1,0.3-1.7,0.8-2.1
			c-0.3-0.3-0.5-0.7-0.7-1.1l-5.5-0.8c-0.6,2.6-1.1,5.1-1.6,7.7L377.5,376.4z"/>
		<path class="st2" d="M351.4,407.6c4.3,1.3,8.8,2,13.3,1.9c0.4-14.7,2.2-29.3,5.5-43.6c-5-1.3-9.9-2.6-14.9-4
			C351.3,376.6,349.9,392.4,351.4,407.6z"/>
		<path class="st1" d="M250.3,347.3c0.1,0.1,0.2,0.2,0.3,0.4c3.7,4.4,10.7,12.6,17.7,11.4c4.7-0.8,8.8-5.8,12.3-14.8
			c-4.4-2.7-8.6-9.2-8.1-18c-2.1,0.8-4.4,1.7-6.8,2.1c-1.2,0.2-2.4,0.3-3.6,0.3c-1.5,0-3-0.1-4.4-0.4
			C258.2,332.2,258.6,342.8,250.3,347.3z"/>
		<path class="st1" d="M301,497.8c0.6-1,0.6-2.4,0.3-3.7c-0.4-0.1-0.8-0.3-1.2-0.4l-0.1,0.2c-1.3,1.6-3.1,2.7-5.1,3.2
			c-1.1,0.3-2.2,0.4-3.3,0.4c1.7,1.6,4.5,2.6,7.3,1.9C299.9,499.2,300.6,498.6,301,497.8z"/>
		<path d="M272.9,469.4c-0.5-3.7-0.8-7.3-1-11c-0.1-3.7-0.2-7.4-0.1-11c0.1-3.7,0.4-7.3,0.6-11c0.4-3.6,0.6-7.3,1.1-10.9
			c1.6-14.6,3.9-29,5.9-43.5c1.1-7.2,2.1-14.5,2.9-21.7l0.6-5.4l0.5-5.4c0.1-1.3,0.2-2.6,0.2-3.9l0,0.1c-0.4-0.1-0.9-0.2-1.3-0.4
			c-3.7,9.6-8.4,15-13.8,15.9c-0.6,0.1-1.2,0.2-1.8,0.2c-7.4,0-14.1-7.9-17.8-12.2c-0.2-0.3-0.5-0.5-0.7-0.8c-0.1,0-0.2,0.1-0.2,0.1
			c0,0.9,0,1.7,0.1,2.6c0.1,3.4,0.4,6.9,0.8,10.3c0.7,6.9,1.7,13.7,2.7,20.6c2,13.7,4.1,27.4,5.1,41.3c0.5,6.9,0.7,13.9,0.3,20.9
			c-0.2,3.5-0.5,7-1.1,10.4c-0.2,1.7-0.7,3.4-1,5.2c-0.5,1.7-0.9,3.4-1.4,5.1c-2.1,6.6-4.6,13.1-7.2,19.6c-0.6,1.6-1.3,3.2-2,4.8
			c-0.4,0.8-0.7,1.6-1.1,2.4c1.5,0.5,2.7,0.9,3.9,1.1c1-1.7,1.8-3.4,2.6-5.1c0.8-1.9,1.5-3.9,2-5.9c0.6-2,0.9-4.1,1.2-6.1
			c0.3-2.1,0.5-4.2,0.7-6.3c0.5,2.1,0.7,4.3,0.7,6.4c-0.1,2.2-0.4,4.3-0.8,6.4c-0.4,2.1-1.1,4.2-1.9,6.2c-0.6,1.6-1.4,3.2-2.3,4.7
			c2.4,0.2,4.5-0.2,6.9-0.5c1.7-0.3,3.5-0.6,5.6-0.7c2.9-0.2,6.1-0.7,9.2-1.1c2.6-0.4,5.2-0.8,7.7-1c-1.7-2.8-2.8-5.9-3.7-9
			C274.1,476.7,273.4,473.1,272.9,469.4z M263.4,487.9c-0.7-5.1-1.2-10.3-1.6-15.5c-0.2-2.6-0.3-5.2-0.5-7.7l-0.4-7.8l-0.3-7.8
			l-0.2-7.8c0-5.2-0.4-10.3,0.1-15.5c1,5.1,1.1,10.3,1.5,15.5l0.5,7.7l0.4,7.8l0.3,7.8c0.1,2.6,0.2,5.2,0.2,7.8
			C263.6,477.5,263.6,482.7,263.4,487.9z M270.9,400.1c-0.4,5.6-1,11.2-1.5,16.8c-0.3,2.8-0.6,5.6-1,8.4c-0.4,2.8-0.7,5.6-1.2,8.4
			c-0.1-2.8,0-5.6,0.1-8.5c0.1-2.8,0.2-5.6,0.3-8.4c0.3-5.6,0.6-11.2,1.1-16.8c0.4-5.6,0.9-11.2,1.5-16.8c0.3-2.8,0.6-5.6,1-8.4
			c0.3-2.8,0.7-5.6,1.2-8.4c0,2.8,0,5.6-0.1,8.5c-0.1,2.8-0.2,5.6-0.3,8.4C271.7,388.9,271.3,394.5,270.9,400.1z"/>
		<path d="M303.4,497.3c-0.1,0.5-0.3,1-0.5,1.4c-0.7,1.3-1.9,2.3-3.4,2.6c-0.8,0.2-1.5,0.3-2.3,0.3c-3.7,0-6.9-2-8.3-4.5
			c-0.3-0.1-0.5-0.1-0.8-0.2c0.9,3.2,3.4,7.6,7.1,9.5c2.5,1.3,5.3,1.2,8-0.4c2.2-1.3,1.7-3.8,0.6-7.5
			C303.6,498.1,303.5,497.7,303.4,497.3z"/>
		<path class="st0" d="M433.1,133.9c2.6-3.4,4.2-8.1,3-11.8l0.1,0c-0.4-0.5-0.9-0.9-1.3-1.3c-1.6-1.2-3.6-2-5.6-2.1
			c-1.4-0.1-2.9,0.2-4.1,0.9c0.9,0.3,1.6,0.8,2.3,1.4c1.1,0.9,2,2.1,2.8,3.3c1.5,2.4,2.5,5.1,2.8,7.9
			C433.1,132.6,433.1,133.3,433.1,133.9z"/>
		<path class="st2" d="M352.7,245.6c-1.8,0-3.3,1.5-3.3,3.3c0,1.8,1.5,3.3,3.3,3.3s3.3-1.5,3.3-3.3
			C356,247.1,354.5,245.6,352.7,245.6z"/>
		<path class="st4" d="M239.1,329.5l-0.1-1.9l16.3,9.8c1-4,0.5-7.9,0.3-9.4c-3.5-0.8-6.9-2.1-9.9-3.3l-39.3-15.2l15.9,24.5l-1.4-15
			l2,1.9c0.1,0.1,9.6,9.5,16.4,13.6C239.3,332.3,239.1,329.5,239.1,329.5z"/>
		<circle class="st2" cx="361.8" cy="226.1" r="4.4"/>
		<path class="st5" d="M389.2,282.4c-0.6,0.8-1.4,1.5-2.3,2.1c-0.7,0.4-1.4,0.6-2.2,0.7v1.3c2.6,0.9,5.7-2.1,6.9-4.7
			c1.3-2.6,1.4-5.7,1.3-8.5c-4.3,1.3-7.9,5.4-8.2,9.6c0.4-0.1,0.7-0.3,1-0.4c0.6-0.4,1.3-0.9,1.9-1.4c1.2-1.2,2.2-2.6,3.4-4.1
			c0,1-0.2,1.9-0.5,2.8C390.3,280.7,389.9,281.6,389.2,282.4z"/>
		<path class="st2" d="M412.7,230.7c3.2,0,5.7-2.6,5.7-5.7c0-3.2-2.6-5.7-5.7-5.7c-3.2,0-5.7,2.6-5.7,5.7
			C407,228.2,409.5,230.7,412.7,230.7z"/>
		<circle class="st2" cx="413.3" cy="283.9" r="6.2"/>
		<path class="st2" d="M418.1,256.3c2.6,0,4.7-2.1,4.7-4.7c0-2.6-2.1-4.7-4.7-4.7c-2.6,0-4.7,2.1-4.7,4.7
			C413.4,254.2,415.5,256.3,418.1,256.3z"/>
		<path class="st2" d="M360.4,273.5c-2.5,0-4.5,2-4.5,4.5s2,4.5,4.5,4.5s4.5-2,4.5-4.5S362.9,273.5,360.4,273.5z"/>
		<circle class="st2" cx="383.8" cy="200.6" r="6.6"/>
		<path class="st0" d="M282.9,413.8c-1.3,13.7-1.7,27.6,1.3,40.9c0.7,3.3,1.7,6.6,2.7,9.9c1.1,3.2,2.3,6.5,3.6,9.6
			c2.4,5.9,4.8,11.7,6.9,17.8c5.8,2.6,9.2,1.2,12.3-0.2c0.9-0.4,1.8-0.8,2.7-1c-0.6-0.7-1.2-1.4-1.7-2.2c-0.6-0.8-1-1.6-1.4-2.4
			l-1.4-2.4l-2.8-4.8c-1.9-3.2-3.7-6.4-5.1-9.9c2.4,2.9,4.4,6,6.4,9.1l2.9,4.7l1.5,2.4c0.5,0.8,1,1.6,1.5,2.3
			c0.5,0.7,1.1,1.4,1.7,2.1l0.9,1c0.3,0.3,0.6,0.5,0.9,0.8c1.3,0.8,3.1,1.2,4.8,1.3c3.3,0.2,6.6-0.3,9.9-1c-0.1-2-0.3-4-0.7-6
			c-0.4-2.3-1-4.5-1.7-6.7c-1.4-4.4-3-8.8-4.7-13.2c-3.4-8.7-7.1-17.4-10.8-26c-0.9-2.1-1.9-4.3-2.7-6.6c-0.8-2.2-1.5-4.5-2.2-6.8
			c-1.3-4.6-2.2-9.2-2.9-13.9c-1.4-9.3-1.8-18.2-2.1-27.6c-0.3-0.6-1.8-4.8-2.1-5.9c-0.3-1.2-0.5-2.4-0.6-3.6
			c-0.3-2.4-0.3-4.8,0.2-7.2l0.3,0c0.4,7.3,3.7,15.1,7.5,19c1.2,1.2,2.4,2,3.9,2.8l4.6,2.4l9.2,4.8c0.3,0.2,0.6,0.3,0.9,0.5
			c-1-1.7-1.9-3.4-2.7-5.1c-0.7-1.5-1.2-3.1-1.7-4.7c-0.5-1.6-0.9-3.2-1.1-4.8l0.1,0c0.5,1.6,1.1,3.1,1.8,4.6
			c0.7,1.5,1.5,2.9,2.3,4.3c1.5,2.7,3.2,5.2,4.9,7.7c4.3,2.3,8.6,4.5,13,6.3c-1.4-1-2.6-2.1-3.8-3.2c-2.2-2.2-4.2-4.6-5.9-7.2
			c-1.7-2.6-3.1-5.4-4.3-8.2c-1.2-2.8-2.1-5.9-2.2-9c1.2,2.8,2.3,5.6,3.6,8.4c1.3,2.7,2.8,5.3,4.5,7.8c1.7,2.4,3.6,4.7,5.8,6.8
			c1.5,1.4,3,2.7,4.7,3.8c-0.4-0.8-0.7-1.6-1.2-2.4c-0.9-1.7-1.8-3.3-2.9-4.9c-1-1.6-2.1-3.1-3.3-4.6c-1.2-1.5-2.5-2.9-3.9-4.2
			c0,0,3.1,2.3,4.4,3.7c1.3,1.4,2.6,2.9,3.7,4.4c1.2,1.5,2.3,3.1,3.3,4.8c0.6,1,1.2,2,1.7,3c-1-14.4,0.5-28.8,4.3-42.8
			c-8.9-2.5-17.8-5.2-26.7-8.1c-2.5,0.1-5-0.1-7.5-0.3l-8.3-0.5c2.7-0.6,5.5-1,8.3-1.2c0.4,0,0.8,0,1.2-0.1
			c-8.8-2.9-17.5-6-26.1-9.3c0.7,3.3,0.3,6.6-0.1,9.8c-1,6.9-2.2,13.7-3.3,20.5C286.8,386.5,284.3,400.1,282.9,413.8z"/>
		<path class="st6" d="M193.9,273.1c-0.6,1.3-1.9,2.6-3.6,2.8c-1.6,0.2-3.3-0.4-4.3-1.8c-0.9-1.3-1.2-3-0.6-4.5l0,0l0.2-0.5l0.3-0.1
			c1.6-0.5,3.2,0.2,3.9,1.2c-0.9-0.4-1.9-0.3-2.5,0.2c-0.2,0.8,0,1.8,0.5,2.4c0.5,0.7,1.4,1,2.3,0.9c0.8-0.1,1.6-0.7,2-1.6
			c0.5-0.9,0.7-2,0.7-3.1c0-2.3-0.7-4.6-2-6.6c-0.6-1-1.4-2-2.2-2.8c-0.9-0.8-1.9-1.5-3-2.1c1.2,0.3,2.4,0.9,3.4,1.6
			c1,0.7,2,1.6,2.8,2.6c1.4,1.7,2.4,3.8,2.7,6.1l-0.3-15.6c-1.5-1-5.7-3.5-9.3-2.8c-2.6,0.5-4.7,3.5-5.2,7.2
			c-0.7,5.7,0.9,11.6,1.9,13.9c3.3,8.1,6.9,13.1,13.4,18.9l-0.4-18.6C194.4,271.7,194.2,272.4,193.9,273.1z"/>
		<path class="st1" d="M379.5,376.3c0,0.4,0.7,1.3,2.1,1.8c0.8,0.3,3.6,1.2,6-1.3c2.6-2.7,1-7.2-0.9-9.4c-0.5-0.6-1.8-1-3.2-1
			c-0.4,0-0.8,0-1.2,0.1c-1.5,0.2-2.4,0.8-2.5,1.1c-0.3,0.7,0.9,1.3,1,1.3l2.6,1.3l-2.8,0.6c-0.3,0.1-0.8,0.3-0.7,0.9
			c0.1,1,1.2,1.5,1.2,1.5l2.8,1.3l-3,0.6C380.5,375.3,379.5,375.5,379.5,376.3z"/>
		<circle class="st2" cx="383.8" cy="252.5" r="12.1"/>
		<path class="st5" d="M382.7,285.6c-0.7,0-1.4-0.1-2.1-0.3c-0.9-0.3-1.7-0.8-2.4-1.4c-1.3-1.3-2.2-2.8-2.5-4.5
			c0.6,0.6,1.2,1.2,1.7,1.7c0.6,0.5,1.2,1,1.8,1.4c0.6,0.4,1.3,0.7,1.9,0.8c0.5,0.1,1,0.2,1.5,0.2v-0.3c-0.7-4-4.7-7.4-8.8-8.6
			c-0.1,2.9,0,5.9,1.3,8.5c1.2,2.4,4.8,4,7.5,3.5V285.6z"/>
		<path class="st2" d="M204.4,241.7c-3.4,3-5.4,7.5-5.6,12.7c-0.5,10.9,4.8,19.6,14.4,23.4c5.6,2.2,12,1.6,16.4-1.6
			c3.1-2.2,5.1-5.5,6-9.6c-2.5,4.3-6.5,6.8-11.3,6.8c-3.8,0-7.9-2.4-10.4-4.8c-3.7-0.7-6.3-3.1-6.3-6c0-1.5,0.7-2.9,1.9-4l-0.2,0
			c-0.2-1.3-0.3-2.6-0.3-3.9c0-7.3,3.4-13.7,8.7-16.7c-0.5-0.1-1-0.1-1.5-0.2C211.7,237.5,207.6,238.8,204.4,241.7z"/>
		<path class="st7" d="M233.6,248.4c-0.3,0.3-0.6,0.6-1,0.8c0.9,1.5,1.4,3.3,1.4,5.1c0,5.2-4,9.5-8.9,9.5c-0.1,0-0.2,0-0.3,0
			c-0.8,2.7-3.8,4.6-7.6,4.8c2.1,1.4,4.6,2.6,7,2.6c6.1,0,10.6-4.6,11.9-12.4C236.1,254.9,235.1,251.4,233.6,248.4z"/>
		<path class="st2" d="M216.4,258.2c-3.7,0-6.8,1.9-6.8,4.3s3.1,4.3,6.8,4.3c3.2,0,6-1.5,6.6-3.5c0.1-0.3,0.1-0.5,0.1-0.8
			c0-1.4-1.2-2.8-3.1-3.6C218.9,258.5,217.7,258.2,216.4,258.2z"/>
		<path class="st7" d="M211,254.7c0,0.9,0.1,1.8,0.2,2.7c1.4-0.7,3.2-1.2,5.1-1.2c0,0,0.1,0,0.1,0c-0.1-0.6-0.2-1.2-0.2-1.9
			c0-2.5,0.9-4.8,2.5-6.6c-0.7-0.9-1.1-1.9-1.1-3c0-2.5,2-4.7,5-5.7c-0.5-0.2-1-0.3-1.6-0.5C215.3,240.4,211,247.1,211,254.7z"/>
		<path class="st2" d="M226,240.5c-3.4,0.2-6.3,2-6.3,4.2c0,2.3,3.1,4.3,6.8,4.3c2.5,0,4.9-0.9,6.1-2.4
			C230.9,244.1,228.7,242,226,240.5z"/>
		<path class="st2" d="M310,243.2c-0.4-0.5-0.9-1-1.4-1.5c0.3,0.6,0.4,1.3,0.4,2c0,1.3-0.5,2.5-1.4,3.5c0.9,2.4,1.3,4.9,1.3,7.5
			c0,10.2-6.9,18.6-15.3,18.6c-3.6,0-7.1-1.5-9.8-4.4c-3.9-0.7-6.7-3.1-6.7-6.1c0-1.4,0.6-2.7,1.6-3.7c-0.3-1.5-0.5-3-0.5-4.5
			c0-6.4,2.7-12,6.7-15.4c-8.2,3.5-12.9,11.1-13.1,21.6c-0.1,5.3,1.7,10.1,5,13.5c3.2,3.3,7.8,5.1,12.8,5.1
			c11.2,0,19.9-6.5,23.2-17.3C315.1,255.5,314,248,310,243.2z"/>
		<path class="st7" d="M280.6,257.9c1.5-0.8,3.3-1.3,5.3-1.3c0.2,0,0.4,0,0.6,0c-0.2-0.8-0.3-1.7-0.3-2.5c0-3.9,2.3-7.4,5.6-8.8
			c-0.2-0.5-0.3-1-0.3-1.5c0-2.3,1.7-4.3,4.2-5.4c-0.7-0.1-1.4-0.2-2.1-0.2c-7.3,0-13.3,7.4-13.3,16.6
			C280.3,255.8,280.4,256.8,280.6,257.9z"/>
		<path class="st6" d="M329.3,252.8l-0.9,0.8l-0.6-1.1c-2.6-4.8-4.8-9.7-6.8-14.8c-1.9-5.1-3.6-10.2-5-15.5
			c-1.4-5.2-2.5-10.5-3.3-15.9c-0.6-4-1.1-8-1.4-12c-0.7,1.4-1.3,2.8-2,4.2c-1.3,2.7-2.7,5.3-4.3,7.8c-1.6,2.5-3.4,4.9-5.2,7.2
			c-0.9,1.2-1.9,2.3-2.9,3.4c-1,1.1-2,2.2-3.3,3.2l-0.2,0.2l3,0.7c2.8,1.1,4.5,2.9,4.5,4.9c0,3.3-4.3,5.8-9.7,5.8s-9.7-2.6-9.7-5.8
			s4.3-5.8,9.7-5.8c0.4,0,0.8,0,1.2,0.1l-0.2-0.2c-1.5-1.8-2.7-3.7-3.8-5.7c-1-2-1.9-4.1-2.6-6.3c-0.8-2.5-1.3-5.1-1.5-7.7
			c-1.4,3.7-2.8,7.4-4.4,11c-1.4,3.3-3,6.6-4.6,9.8c-1.7,3.2-3.4,6.3-5.3,9.4c-1.9,3.1-3.9,6.1-6.1,9c-2.2,2.9-4.6,5.7-7.5,8l0,0
			l-1.2,1.2l-0.1-1.8c-0.2-2.6-0.3-5.1-0.3-7.7c0-2.6,0-5.1,0-7.7c0-0.4,0-0.9,0-1.3c-2.1,4-4.1,7.9-6.2,11.9
			c-2.8,5.2-5.6,10.4-8.6,15.5l-1.1,1.8l-0.7-1.9v0c-0.1-0.2-0.1-0.4-0.2-0.5c0.1,0.6,0.1,1.2,0.1,1.8c0.5,10.8-3.8,16.2-7.5,18.9
			c-3,2.1-6.8,3.2-10.7,3.2c-2.6,0-5.2-0.5-7.6-1.4c-10.3-4.1-16.2-13.5-15.6-25.3c0.3-5.7,2.5-10.7,6.3-14.1
			c3.5-3.1,8.2-4.7,13.3-4.4c3.4,0.2,6.8,1.1,10,2.7c0.1,0,0.1,0,0.2,0v0.1c2.9,1.5,5.6,3.7,7.6,6.7c-0.9-3.2-1.7-6.4-2.4-9.7
			c-1.6-7.5-2.4-15.2-2.5-22.8c0-6.9,0.6-13.9,2-20.7c-9.1,12.5-20.9,24.6-35.6,36.5l1.4,63.1c0.1,4.7,0.5,9.5,3.5,12.4
			c1.6,1.5,3.7,2.4,5.8,3.2l40.3,15.6c5.5,2.1,12.4,4.8,18.9,3.7c2.5-0.4,5.1-1.5,7.3-2.4c15.5-6.3,30.4-12.8,43.6-22.3
			c1.8-1.3,3.6-2.7,4.8-4.6c1.2-1.9,1.8-4.3,2.3-6.5c2.7-12,5.6-28.1,7.6-39.3C330.4,251.9,329.9,252.3,329.3,252.8z M217.3,220.2
			c5.4,0,9.7,2.6,9.7,5.8s-4.3,5.8-9.7,5.8s-9.7-2.6-9.7-5.8S211.9,220.2,217.3,220.2z M207.7,285.7l0.5,2.1l-1.8-0.9l-6.8-3.3
			l5.7,1.1l-0.6-2.3l-0.5-2l1.8,0.8l9.2,4.2l-8.2-1.9L207.7,285.7z M240.2,290.7c0-3,8.6-3.2,10.4-3.2s10.4,0.2,10.4,3.2
			s-8.6,3.2-10.4,3.2S240.2,293.8,240.2,290.7z M259.5,308c-1.8,1.3-4,2.3-6.3,2.8c-2.3,0.5-4.7,0.3-6.9-0.6
			c-2.2-0.8-4.2-2.4-5.1-4.5c1.7,1.4,3.6,2.4,5.6,2.8c2,0.5,4.1,0.6,6.1,0.3c2-0.3,4-1.1,5.9-2.1c1.9-1,3.7-2.2,5.4-3.6
			C263,305,261.4,306.6,259.5,308z M275.6,275.9c-3.7-3.8-5.7-9.1-5.6-15c0.2-14.3,8.9-24.1,22.5-25.5c10.5-1.1,16.2,3,19.1,6.5
			c4.3,5.3,5.6,13.5,3.3,20.9c-3.7,11.7-13.1,18.7-25.2,18.7C284.2,281.5,279.2,279.5,275.6,275.9z M314.2,281.4l0.5,2.3l0.5,2.1
			l-1.8-0.9l-6.7-3.4l5.7,1.2l-0.6-2.4l-0.5-2l1.8,0.9l9.1,4.4L314.2,281.4z"/>
		<path d="M225.1,261.8c0,0,0.1,0,0.1,0c3.8,0,6.9-3.4,6.9-7.5c0-1.5-0.4-2.9-1.2-4.2c-1.3,0.5-2.8,0.8-4.4,0.8
			c-2.5,0-4.7-0.7-6.3-1.8c-1.2,1.4-1.9,3.2-1.9,5.2c0,0.7,0.1,1.4,0.3,2.1c0.7,0.1,1.5,0.3,2.1,0.6
			C223.2,258.1,224.8,259.8,225.1,261.8z"/>
		<path class="st0" d="M384.7,128.4c-1.2,2.3-2.2,5.1-3.1,8.1C383.3,134.1,384.3,131.3,384.7,128.4z"/>
		<path class="st4" d="M283.5,226.1c0,1.8,3.2,3.8,7.7,3.8c4.5,0,7.7-2,7.7-3.8c0-1.1-1.2-2.3-3.1-3l-3-0.7
			c-0.5-0.1-1.1-0.1-1.6-0.1C286.6,222.2,283.5,224.2,283.5,226.1z"/>
		<path class="st0" d="M242.3,126.9c1.8,0.7,3.6,1.4,5.3,2.1c3.5,1.5,7,3.1,10.4,4.8c0.8,0.4,1.6,0.8,2.4,1.2c-0.6-1-1.3-2-1.9-3.1
			c-1.1-1.8-2.2-3.7-3.1-5.6l-0.9-1.8l1.9,0.7l0,0c1.7,0.6,3.3,1.2,4.8,1.9c1.6,0.7,3.2,1.4,4.7,2.1c3.1,1.5,6.2,3.1,9.2,4.9
			c3,1.8,5.9,3.7,8.6,5.8c0,0,0.1,0.1,0.1,0.1c-0.1-0.4-0.2-0.8-0.3-1.1c-0.3-1.1-0.7-2.3-1.1-3.4l0,0l-1-2.7l2.4,1.7
			c1.7,1.2,3.5,2.5,5.2,3.8c0.8,0.7,1.7,1.3,2.5,2l2.4,2.1c3.1,2.9,6.2,5.9,9.1,9.1c2.6,2.9,5.1,5.9,7.4,8.9l-0.6-12.6l1.7,1.3
			c0.1,0.1,13.1,10.1,25.8,23.9c5.7,6.2,13.9,18.3,16.7,29.5c0.5,0.4,1,0.8,1.5,1.2c0.2,0.1,0.4,0.3,0.8,0.1
			c5.6-2.3,16.8-30.6,19.8-49.1c-1.7,2.7-3.7,5.2-6.1,7.5c-1.7,1.6-3.6,3-5.6,4.2c-2,1.2-4.2,2-6.4,2.7c2-1.2,3.9-2.4,5.7-3.7
			c1.8-1.3,3.4-2.8,4.9-4.5c3-3.2,5.4-6.8,8.1-10.3l0.2-1.9l0,0c0.2-1.7,0.6-4,1.1-6.6c-1.5-1.2-2.7-2.7-3.5-4.3
			c-0.9-1.8-1.4-3.8-1.7-5.7c-0.3-2-0.5-3.9-0.4-5.9c0-1.9,0.2-3.9,0.5-5.8c0.1,1.9,0.3,3.8,0.5,5.7c0.3,1.9,0.6,3.8,1.1,5.6
			c0.5,1.8,1.1,3.6,2,5.2c0.6,1.1,1.3,2.1,2.1,3c1.3-6,3.4-12.8,6.6-16.7l1.6-2l0.1,2.6c0.3,5.9-2.1,11.9-6.3,16.1
			c-0.9,3.9-1.5,8-1.9,11.6c1.7,2.7,3.9,4.3,6.4,4.8c3.3,0.6,6.5-0.8,8.1-1.8c-1.8-1.9-3.3-4.1-4.1-6.5c1.5,1.6,3,3.1,4.6,4.5
			c1.5,1.4,3.1,2.8,4.9,3.9c3.5,2.3,7.5,3.8,11.7,4.1c4.2,0.4,8.4-0.3,12.4-1.8c1-0.3,2-0.8,3-1.2c1-0.5,1.9-0.9,2.9-1.4
			c1.9-1,3.8-2,5.4-3.3c1.7-1.3,3.2-2.7,4.3-4.4c1.2-1.7,2-3.6,2.6-5.6c1-4,0.6-8.3-0.4-12.3c-0.5-2-1.2-4-2.3-5.8
			c-0.1-0.1-0.2-0.3-0.2-0.4c-0.8,9.4-7.4,13.5-9.4,14.6c-1.9,1.1-4.7,1.6-7.5,1.6c-2.8,0-5.6-0.6-8.1-2c-1.2-0.7-2.3-1.7-3.2-2.9
			c-0.8-1.2-1.4-2.4-2.1-3.6c-2.3-4.8-4.2-9.8-6.1-14.7l-5.7-14.8c-1-2.5-1.9-4.9-3-7.3c-1-2.4-2.1-4.8-3.4-7.1
			c-0.3-0.6-0.6-1.1-1-1.6c-0.4-0.5-0.7-0.9-1.1-1.2c-0.2-0.1-0.4-0.2-0.8-0.3c-0.3-0.1-0.6-0.2-0.9-0.2c-0.6-0.1-1.3-0.2-1.9-0.3
			c-2.6-0.3-5.3-0.3-7.9-0.3c-5.3,0.1-10.6,0.5-15.9,1.2c-10.6,1.3-21.1,3.3-31.4,5.9c-10.3,2.6-20.5,5.7-30.6,9.4
			C278.8,107.7,260.1,116.5,242.3,126.9"/>
		<path class="st2" d="M282.6,338.8l-1.5,1.2l-0.6-6.8l-2.8,5.4c1.8,2.6,4,4.3,6.2,4.9c0.1-1.7,0.2-3.3,0.6-5
			c0.3,0.9,0.4,1.8,0.5,2.7c0.1,0.9,0.2,1.8,0.2,2.8c-0.1,1.8-0.1,3.7-0.2,5.5l-0.4,5.5l-0.6,5.5c-0.8,7.3-1.8,14.5-2.8,21.8
			c-2,14.5-4,28.9-5.6,43.4c-1.6,14.5-2.6,29.1-0.5,43.5c0.5,3.6,1.1,7.1,2.1,10.6c1,3.5,2.2,6.8,4.2,9.7c2,2.9,4.7,5.2,8.1,5.8
			c1.6,0.3,3.4,0.4,5-0.1c1.4-0.4,2.7-1.1,3.7-2.1c-2.1-6.3-4.7-12.5-7.2-18.7c-1.3-3.2-2.5-6.5-3.7-9.8c-1.1-3.3-2.1-6.7-2.8-10.1
			c-1.5-6.8-2.2-13.8-2.3-20.8c-0.2-7,0.4-13.9,1-20.8c1.4-13.8,3.9-27.4,6.3-41c1.2-6.8,2.4-13.6,3.3-20.4c0.5-3.4,0.8-6.8-0.1-9.9
			c-0.5-1.5-1.2-3.1-2.1-4.2c-0.9-1-2-1.8-3.2-2.4C284.8,337,282.9,338.6,282.6,338.8z"/>
		<path class="st6" d="M332.5,254.8l-0.1-0.3c-0.7,4.2-1.5,8.5-2.3,12.8c0.9-1.7,2.2-3.2,3.7-4.4c1-0.8,2.2-1.4,3.3-1.9
			c1.2-0.4,2.4-0.7,3.7-0.7c-1.2,0.3-2.4,0.8-3.4,1.4c-1.1,0.6-2,1.3-2.8,2.2c-1.7,1.7-2.9,3.7-3.5,5.9c-0.3,1.1-0.3,2.2-0.1,3.2
			c0.2,1,0.8,1.7,1.6,2c0.8,0.3,1.8,0.2,2.4-0.3c0.7-0.5,1.1-1.4,1.1-2.2c-0.5-0.6-1.4-0.9-2.4-0.8c1-0.8,2.6-1.1,4.1-0.2l0.3,0.2
			l0.1,0.5l0,0c0.2,1.6-0.5,3.2-1.7,4.2c-1.3,1.1-3.1,1.3-4.6,0.7c-1.6-0.6-2.6-2.1-2.8-3.6c0,0,0,0,0,0c-1.2,6.1-2.4,12-3.5,17.2
			c7.2-4.2,11.7-8.5,16.4-15.5c1.4-2.1,4.2-7.5,4.7-13.3c0.3-3.8-1.2-7.1-3.6-8.1C338.7,251.9,332.6,254.8,332.5,254.8z"/>
		<path id="hair" class="st4" d="M311.4,153.9l0.6,11.5c2,2.9,3.9,5.9,5.5,9.1c-2.9-3.3-5.6-6.6-8.4-9.9c-2.7-3.3-5.5-6.6-8.4-9.7
			c-2.9-3.2-5.9-6.2-9-9.2c-2.4-2.3-4.9-4.4-7.4-6.5c0.1,0.2,0.1,0.5,0.2,0.7c0.2,0.6,0.3,1.2,0.4,1.9c0.1,0.5,0.2,1,0.2,1.6
			c0.6,0.6,1.1,1.1,1.7,1.7c0.6,0.7,1.1,1.4,1.6,2.1c0.5,0.8,0.9,1.6,1.3,2.4c-2.6-2.4-5.2-4.5-8-6.5c-2.8-2-5.7-3.8-8.7-5.6
			c-3-1.7-6-3.4-9.1-5c-2.4-1.2-4.7-2.4-7.1-3.6c1.6,3.1,3.5,6.1,5.4,9l0,0c1.7,0.9,3.3,1.9,4.9,2.9c1.6,1,3.2,2.2,4.8,3.4
			c1.5,1.2,3,2.5,4.2,4c-1.5-1.2-3.2-2.2-4.8-3.2c-1.6-1-3.3-1.9-5-2.8c-3.4-1.8-6.8-3.6-10.2-5.3c-6.9-3.4-14-6.4-21.2-8.9
			c-7.3-2.5-14.7-4.6-22.2-6.4c-3.7-0.9-7.5-1.8-11.3-2.6l-9.6-2c8.9,12.8,17.3,25.9,26.3,38.6c3,0.4,6,1,9,1.8
			c-5.1-0.1-10.1-0.6-15.1-0.9c-5-0.3-10-0.5-15.1-0.7c-5-0.1-10.1-0.1-15.1,0l-7.5,0.2l-6.1,0.2c1.4,1.1,2.9,2.1,4.3,3.2l5.4,4.2
			c3.4,2.7,6.8,5.4,10.2,8.2c3.7-1.4,7.5-2.6,11.4-2.8c-3.9,1.9-7.9,3.2-11.7,4.8c-3.9,1.7-7.6,3.6-11.2,5.8
			c-3.6,2.2-7,4.6-10.3,7.2c-2.3,1.9-4.6,3.9-6.7,6c1.5-0.4,3-0.8,4.5-1.2c2.7-0.7,5.3-1.3,8-1.9c2.7-0.6,5.4-1.2,8.1-1.7
			c2.7-0.5,5.4-0.9,8.2-1c-2.5,1.2-5.2,2.1-7.8,2.8c-0.5,0.1-1,0.3-1.5,0.4c-7.8,18.1-11.5,38.9-14.1,57.4
			c30.9-19.8,52.9-39.7,67.3-61c0.7-2.7,1.5-5.5,2.5-8.1c1.4-3.6,3-7.1,5.5-10.1c-1.3,3.6-2.5,7.1-3.7,10.7
			c-1.1,3.6-2.2,7.2-2.9,10.9c-1.5,7.4-2.1,14.9-2,22.4c0.1,7.5,0.9,15,2.4,22.4c1.3,6.7,3.2,13.2,5.4,19.7c2.6-4.5,5-9,7.5-13.6
			c2.7-5.2,5.4-10.3,8.1-15.5c0-0.6,0-1.2,0.1-1.8c0.1-2.6,0.4-5.1,0.9-7.7c0.5,2.6,0.7,5.1,0.9,7.7c0.1,2.6,0.1,5.1,0.2,7.7
			c0,2.6,0,5.1,0,7.7c0,1.9-0.1,3.8-0.1,5.7c2-2,3.8-4.2,5.5-6.5c2.1-2.9,4-5.9,5.8-8.9c3.6-6.1,6.9-12.5,9.7-19
			c2.8-6.5,5.4-13.2,7.5-20c2.1-6.8,3.5-13.7,5.1-20.7c0.4,7.2-1.1,14.4-3.1,21.3c-0.4,1.2-0.7,2.5-1.1,3.7l0,0
			c-0.3,4.3,0.2,8.6,1.5,12.7c0.6,2,1.4,4,2.4,5.9c0.8,1.6,1.8,3.1,2.9,4.5c0.8-0.7,1.6-1.5,2.3-2.3c1-1.1,1.9-2.2,2.8-3.3
			c1.8-2.3,3.5-4.6,5.1-7.1c1.6-2.4,2.9-5,4.2-7.6c1.3-2.6,2.5-5.3,3.7-8l1.8-4.1l0.1,4.5c0.2,5.3,0.8,10.6,1.6,15.9
			c0.8,5.3,1.9,10.5,3.3,15.7c1.4,5.2,3,10.3,4.9,15.3c1.8,4.6,3.8,9,6.1,13.4c0.6-0.6,1.3-1.3,1.8-2c0.9-1,1.8-2,2.5-3.1
			c1.6-2.2,3.1-4.5,4.4-7c-0.3,1.4-0.7,2.7-1.2,4c-0.5,1.3-1.1,2.6-1.8,3.9c-0.4,0.7-0.8,1.4-1.2,2.1c-0.2,1.4-0.5,2.9-0.8,4.3
			c1.4-0.6,4.1-1.4,6.8-1.4c1.6-3.7,12.7-29.3,13.2-37.2c0.6-11.2-8.4-27.5-17.3-37.2C325.5,165.8,315.4,157.1,311.4,153.9z"/>
		<ellipse class="st2" cx="285.9" cy="262.9" rx="6.8" ry="4.3"/>
		<ellipse class="st2" cx="300.3" cy="243.7" rx="6.8" ry="4.3"/>
		<ellipse class="st4" cx="217.3" cy="226.1" rx="7.7" ry="3.8"/>
		<ellipse class="st1" cx="250.6" cy="290.7" rx="8.1" ry="1.2"/>
		<path d="M294.5,261.5c0.2,0,0.4,0,0.6,0c3.8,0,6.9-3.4,6.9-7.5c0-1.5-0.4-2.9-1.1-4.1c-0.2,0-0.3,0-0.5,0c-3.2,0-5.9-1.2-7.5-3
			c-2.7,1-4.6,3.9-4.6,7.1c0,1,0.2,1.9,0.5,2.8C291.7,257.6,293.8,259.4,294.5,261.5z"/>
		<path class="st7" d="M307,254.7c0-2.1-0.3-4.2-1-6.2c-0.9,0.5-1.9,0.9-3.1,1.2c0.7,1.4,1,2.8,1,4.4c0,5.2-4,9.5-8.9,9.5
			c-0.2,0-0.3,0-0.5,0c-0.4,2.9-3.5,5.1-7.6,5.5c2,1.4,4.3,2.2,6.6,2.2C301,271.3,307,263.8,307,254.7z"/>
		<path class="st4" d="M276.5,336.6l5.3-10.2l0.9,9.7c3.6-3.1,12.9-11,14.8-12.8c2.2-2.2,5.5-5.8,5.5-5.8l1.9-2.1l-0.5,11.7
			c2.4-2.8,6.5-7.7,8.5-10.9c2.7-4.4,3.6-9.6,3.8-12.4c-12.9,9.2-27.3,15.5-42.2,21.7C274.2,329.7,275,333.5,276.5,336.6z"/>
		<ellipse class="st8" cx="383.8" cy="252.3" rx="13.1" ry="12.1"/>
		<circle class="st8" cx="412.7" cy="225" r="6.4"/>
		<circle class="st8" cx="418.4" cy="251.6" r="6.4"/>
		<circle class="st8" cx="413.4" cy="283.9" r="6.4"/>
		<circle class="st8" cx="360.4" cy="278" r="5.7"/>
		<circle class="st8" cx="352.8" cy="249" r="4.6"/>
		<circle class="st8" cx="361.8" cy="226.1" r="6.4"/>
		<circle class="st8" cx="383.8" cy="200.6" r="7.4"/>
		<path d="M314.9,262.9c2.3-7.4,1-15.6-3.3-20.9c-2.9-3.6-8.6-7.6-19.1-6.5c-13.6,1.4-22.3,11.1-22.5,25.5c-0.1,5.9,1.9,11.2,5.6,15
			c3.6,3.7,8.6,5.7,14.2,5.7C301.9,281.5,311.3,274.5,314.9,262.9z M300.3,239.5c3.7,0,6.8,1.9,6.8,4.3s-3.1,4.3-6.8,4.3
			s-6.8-1.9-6.8-4.3S296.7,239.5,300.3,239.5z M292.6,262.9c0,2.3-3.1,4.3-6.8,4.3s-6.8-1.9-6.8-4.3s3.1-4.3,6.8-4.3
			S292.6,260.5,292.6,262.9z M288.2,254.1c0-3.2,1.9-6.1,4.6-7.1c1.5,1.8,4.3,3,7.5,3c0.2,0,0.3,0,0.5,0c0.7,1.2,1.1,2.7,1.1,4.1
			c0,4.1-3.1,7.5-6.9,7.5c-0.2,0-0.4,0-0.6,0c-0.6-2.2-2.8-3.9-5.7-4.6C288.4,256,288.2,255.1,288.2,254.1z M294.6,263.6
			c0.2,0,0.3,0,0.5,0c4.9,0,8.9-4.3,8.9-9.5c0-1.5-0.4-3-1-4.4c1.1-0.2,2.2-0.6,3.1-1.2c0.6,2,1,4,1,6.2c0,9.1-6,16.6-13.3,16.6
			c-2.3,0-4.6-0.8-6.6-2.2C291,268.7,294.2,266.5,294.6,263.6z M293.6,238.1c0.7,0,1.4,0.1,2.1,0.2c-2.5,1.1-4.2,3.1-4.2,5.4
			c0,0.5,0.1,1,0.3,1.5c-3.3,1.4-5.6,4.9-5.6,8.8c0,0.9,0.1,1.7,0.3,2.5c-0.2,0-0.4,0-0.6,0c-2,0-3.8,0.5-5.3,1.3
			c-0.2-1-0.3-2.1-0.3-3.2C280.3,245.6,286.3,238.1,293.6,238.1z M289.8,279.5c-5,0-9.5-1.8-12.8-5.1c-3.3-3.4-5.1-8.2-5-13.5
			c0.2-10.5,5-18.1,13.1-21.6c-4.1,3.3-6.7,9-6.7,15.4c0,1.5,0.2,3,0.5,4.5c-1,1-1.6,2.3-1.6,3.7c0,3,2.8,5.4,6.7,6.1
			c2.8,2.8,6.2,4.4,9.8,4.4c8.4,0,15.3-8.3,15.3-18.6c0-2.6-0.5-5.1-1.3-7.5c0.9-1,1.4-2.2,1.4-3.5c0-0.7-0.2-1.4-0.4-2
			c0.5,0.5,1,1,1.4,1.5c3.9,4.8,5.1,12.3,3,19.1C309.6,273.1,300.9,279.5,289.8,279.5z"/>
		<path d="M217.3,231.9c5.4,0,9.7-2.6,9.7-5.8s-4.3-5.8-9.7-5.8s-9.7,2.6-9.7,5.8S211.9,231.9,217.3,231.9z M217.3,222.2
			c4.5,0,7.7,2,7.7,3.8s-3.2,3.8-7.7,3.8s-7.7-2-7.7-3.8S212.8,222.2,217.3,222.2z"/>
		<path d="M261,290.7c0-3-8.6-3.2-10.4-3.2s-10.4,0.2-10.4,3.2s8.6,3.2,10.4,3.2S261,293.8,261,290.7z M250.6,289.6
			c4.4,0,7.2,0.7,8.1,1.2c-0.9,0.5-3.7,1.2-8.1,1.2s-7.2-0.7-8.1-1.2C243.4,290.2,246.2,289.6,250.6,289.6z"/>
		<path d="M252.9,308.8c-2,0.3-4.1,0.2-6.1-0.3c-2-0.5-3.9-1.4-5.6-2.8c1,2.1,2.9,3.6,5.1,4.5c2.2,0.8,4.6,1,6.9,0.6
			c2.3-0.4,4.4-1.4,6.3-2.8c1.8-1.3,3.4-3,4.7-4.8c-1.8,1.3-3.5,2.6-5.4,3.6C256.9,307.7,254.9,308.5,252.9,308.8z"/>
		<polygon points="206.1,281.1 204.3,280.3 204.8,282.3 205.4,284.7 199.6,283.6 206.4,286.9 208.2,287.7 207.7,285.7 207.1,283.4 
			215.3,285.3 		"/>
		<polygon points="311.4,278.3 311.8,280.3 312.4,282.6 306.7,281.5 313.4,284.9 315.2,285.8 314.7,283.7 314.2,281.4 322.3,283.5 
			313.2,279.1 		"/>
		<path d="M435.8,119.5c-1.9-1.4-4.2-2.3-6.5-2.5c-2.3-0.2-4.5,0.5-6.7,2.4l-1.3,1.3l1.8,0.1c1.1,0,2.2,0.6,3.2,1.4
			c0.9,0.8,1.7,1.8,2.4,2.9c1.3,2.2,2.3,4.7,2.6,7.2c0.1,1.2,0.2,2.6-0.2,3.6c-0.1,0.1-0.1,0.2-0.2,0.4c0,0-0.1,0.1-0.1,0.1l0,0
			c-0.5,0.8-1.2,1.5-2.1,2.1c-2.1,1.3-4.8,1.8-7.3,1.9c-2.6,0-5.2-0.6-7.3-1.9c-1.1-0.7-2-1.5-2.7-2.5c-0.7-1-1.3-2.2-1.9-3.4
			c-2.3-4.8-4.2-9.9-6.1-14.9l-5.7-15.2c-1-2.5-2-5-3-7.5c-1.1-2.5-2.1-5-3.5-7.4c-0.3-0.6-0.7-1.2-1.1-1.8
			c-0.2-0.3-0.4-0.6-0.7-0.9c-0.1-0.1-0.3-0.3-0.4-0.4c-0.2-0.1-0.3-0.3-0.5-0.4c-0.4-0.2-0.8-0.4-1.1-0.4c-0.4-0.1-0.7-0.2-1.1-0.3
			c-0.7-0.1-1.4-0.3-2.1-0.3c-2.7-0.3-5.5-0.3-8.2-0.3c-5.4,0.1-10.9,0.5-16.2,1.2c-10.8,1.3-21.4,3.4-31.9,6.1
			c-10.5,2.7-20.9,5.9-31,9.7c-20.1,7.4-39.4,16.7-57.7,27.6c-1.2-0.4-2.3-0.9-3.5-1.3c-7.3-2.5-14.9-4.5-22.4-6.2
			c-3.8-0.9-7.6-1.6-11.4-2.3c-3.8-0.7-7.6-1.4-11.4-2l0,0l-1.7-0.3l1,1.4c9.1,12.8,17.5,26.1,26.5,39c-1.4-0.2-2.7-0.3-4.1-0.5
			c-5-0.5-10.1-0.9-15.2-1c-5.1-0.1-10.1-0.2-15.2,0.1l-3.8,0.2l-3.8,0.3c-2.5,0.2-5,0.5-7.5,0.8l0,0l-1.2,0.1l0.9,0.8
			c1.7,1.5,3.5,3,5.2,4.4l5.3,4.4c3.2,2.6,6.3,5.1,9.5,7.6c-3.7,1.5-7.4,3.3-10.9,5.3c-3.7,2.2-7.2,4.7-10.6,7.4
			c-3.3,2.7-6.4,5.7-9.3,8.9l0,0l-2.1,2.2l3-0.6c2.7-0.5,5.4-1.1,8.1-1.7c2.7-0.6,5.4-1.3,8-1.9c1.4-0.3,2.7-0.7,4.1-1.1
			c-7.8,18.6-11.4,40-13.9,58.6l-0.3,2.1l1.8-1.1c10.8-6.9,20.6-13.7,29.3-20.7l0.4,19.8c-2.2-1.3-6.1-3.1-9.6-2.4
			c-3.4,0.7-6.2,4.4-6.8,9c-0.6,5.3,0.6,11.5,2,14.9c3.6,8.7,7.6,14.3,15,20.6l0.3-0.3l0,0c0.1,5.1,0.5,10.3,4.1,13.8
			c1.3,1.2,2.8,2,4.3,2.7l21.9,33.7l-1.6-17.6c3.1,2.9,9.3,8.6,14.4,11.7c-0.8,1.1-1.4,2.3-1.7,3.5c0,0.2-0.1,0.3-0.1,0.5
			c-4.9,1.5-8.4,10.5-12.1,20.1c-2.1,5.4-4.2,10.9-6.5,14.5c-4.3,6.7-7.8,12-10.9,16.6c-3.6,5.4-6.7,10-9.9,15.2
			c-2.2,3.6-5.2,8.6-3.2,13.2c0,0.1,0.1,0.2,0.1,0.2c-1.6,2.7-3.2,5.3-5,7.9c-0.9,1.3-1.8,2.7-2.8,3.8c-0.1,0.2-0.2,0.3-0.4,0.4
			l-0.2,0.2c-0.1,0.1-0.3,0.2-0.4,0.4c-0.4,0.6-0.5,1.3-0.4,2c0.2,0.7,0.6,1.2,1.1,1.5c0.5,0.3,1,0.5,1.5,0.6c2,0.3,3.7-0.3,5.2-0.8
			c1.6-0.6,3-1.3,4.5-2c2.8-1.4,5.5-2.9,8.1-4.6l11.2,7.5c1,0.6,2.6,1.8,4.4,1.8c0.4,0,0.8-0.1,1.3-0.2c0.1,0,0.1-0.1,0.2-0.1
			c-3.8,8.4-7.5,16.7-10.9,24.1c-3,6.7-5.8,13.1-8.2,18.2c-4.8,10.3-5,10.7-2.7,13.3l0.2,0.2c0.2,0.1,3.5,2.2,9.6,2.2
			c4.1,0,9.4-0.9,15.9-4c0.2,0.4,0.5,0.7,0.8,1c-5.9,5.1-6.6,8.6-6,10.7c0.6,2.1,2.6,3.6,5.5,4.1c0.9,0.1,1.8,0.2,2.6,0.2
			c8.9,0,12.4-8.1,14.3-12.6c0.3-0.6,0.5-1.2,0.7-1.7c2.6,0.8,4.7,1.1,6.6,1.1c2,0,3.9-0.3,5.9-0.6c1.7-0.3,3.4-0.5,5.4-0.6
			c3-0.2,6.3-0.7,9.4-1.2c2.9-0.4,5.9-0.9,8.7-1.1c1,1.3,2.1,2.6,3.5,3.6c0.7,0.5,1.4,0.9,2.1,1.3c0.6,3.8,3.7,9.7,8.4,12.1
			c1.4,0.7,2.9,1.1,4.4,1.1c1.8,0,3.7-0.5,5.5-1.6c3.8-2.2,2.5-6.6,1.5-9.8c-0.4-1.2-0.7-2.3-0.8-3.2c0.2,0,0.5,0,0.7,0
			c2.9,0,5.1-1,7.1-1.8c1.3-0.6,2.4-1,3.5-1.1c0.2,0.2,0.4,0.4,0.6,0.5c1.8,1.2,3.8,1.5,5.8,1.7c1.9,0.1,3.8,0,5.7-0.2
			c1.9-0.2,3.7-0.6,5.6-1.1l0.7-0.2l0-0.7l0,0c0-2.5-0.3-4.9-0.8-7.2c-0.4-2.3-1-4.7-1.7-6.9c-1.4-4.5-3-9-4.7-13.4
			c-3.4-8.8-7.1-17.4-10.8-26.1c-0.9-2.2-1.8-4.3-2.6-6.5c-0.8-2.2-1.5-4.4-2.1-6.6c-1.2-4.5-2.1-9.1-2.8-13.7
			c-1.2-8.1-1.7-16.3-2-24.5c0.5,0.5,1,1,1.6,1.5c1.5,1.1,3,2,4.5,2.8l4.5,2.5l9.1,4.9c6.1,3.2,12.1,6.6,18.6,9.2
			c3.2,1.3,6.6,2.4,10.1,3c3.5,0.7,7,0.9,10.6,0.6h0l0.9,0l0-0.8c3-10.4,4.8-22.8,4.8-32.8l6.7,0.7c0.6,0.6,1.3,1.1,2.2,1.4
			c0.6,0.2,1.3,0.4,2,0.5v111.3h2V380.5c1.4-0.2,2.9-0.9,4.2-2.2c3.5-3.6,1.6-9.2-0.8-12.1c-0.8-0.9-2-1.4-3.4-1.6v-76.2
			c0.3,0.1,0.6,0.1,0.9,0.1c3.1,0,6.3-2.8,7.8-5.9c1.7-3.4,1.6-7.4,1.5-10.7l0-1.2l-1.1,0.2c-3.7,0.7-7,3.1-9,6.2v-10.6
			c2.7-0.2,5.2-1.1,7.2-2.6l14.8,14.8c-1.1,1.4-1.8,3.2-1.8,5.1c0,4.5,3.7,8.2,8.2,8.2s8.2-3.7,8.2-8.2s-3.7-8.2-8.2-8.2
			c-1.9,0-3.7,0.7-5.1,1.8l-14.7-14.7c2.5-2.3,4.1-5.5,4.4-9.1l13.6-0.7c0.6,3.1,3.3,5.4,6.6,5.4c3.7,0,6.7-3,6.7-6.7
			s-3-6.7-6.7-6.7c-3.5,0-6.4,2.7-6.7,6.1l-13.5,0.7c-0.2-3.3-1.5-6.3-3.6-8.6l13.4-12.2c1.3,1.1,3.1,1.8,5,1.8
			c4.3,0,7.7-3.5,7.7-7.7s-3.5-7.7-7.7-7.7c-4.3,0-7.7,3.5-7.7,7.7c0,1.6,0.5,3.1,1.4,4.4l-13.5,12.3c-2.2-1.8-5-3-8-3.2v-29.3
			c4.3-0.5,7.6-4.1,7.6-8.6c0-4.8-3.9-8.6-8.6-8.6s-8.6,3.9-8.6,8.6c0,4.4,3.3,8.1,7.6,8.6v29.3c-2.9,0.2-5.5,1.3-7.6,2.9l-8.7-11
			c1.1-1.1,1.7-2.7,1.7-4.3c0-3.5-2.9-6.4-6.4-6.4s-6.4,2.9-6.4,6.4s2.9,6.4,6.4,6.4c1.1,0,2.2-0.3,3.1-0.8l8.7,11.1
			c-2,2-3.3,4.7-3.8,7.6l-11.9-1.7c-0.2-2.8-2.5-5-5.3-5c-2.9,0-5.3,2.4-5.3,5.3s2.4,5.3,5.3,5.3c2.4,0,4.3-1.5,5-3.7l12,1.7
			c0,0.1,0,0.1,0,0.2c0,3.6,1.4,6.9,3.7,9.4l-9.4,10.6c-1-0.7-2.2-1-3.5-1c-3.6,0-6.5,2.9-6.5,6.5c0,3.6,2.9,6.5,6.5,6.5
			s6.5-2.9,6.5-6.5c0-1.6-0.6-3-1.5-4.2l9.3-10.5c2.2,1.8,4.9,3,7.9,3.2v11.8c-2.3-3.1-6-5.3-9.6-6l-1.1-0.2l0,1.2
			c-0.1,3.2-0.2,7.3,1.5,10.7c1.4,2.8,4.9,4.7,8.2,4.7c0.4,0,0.7,0,1.1-0.1v76c-0.3,0-0.6,0-0.8,0.1c-1,0.1-3.2,0.6-4,2.1l-5.2-0.7
			c0-0.2,0.1-0.4,0.1-0.6l0.2-1l-1-0.2c-26.4-6.8-52.5-15.1-78-24.7l0,0c-0.2-0.4-0.3-0.8-0.5-1.2c-0.4-0.8-0.9-1.7-1.5-2.4
			c-0.9-1.1-2-1.9-3.1-2.5c4-3.4,8.7-7.5,10.1-8.8c1.2-1.2,2.6-2.7,3.8-3.9l-0.5,11.8l1.9-2.1c0.3-0.3,7.6-8.5,10.6-13.3
			c3.7-6,4.2-13.1,4.3-15c1.4-1.1,2.8-2.4,3.8-4c1-1.6,1.6-3.3,2-5c8.4-4.7,13.5-9.3,18.7-17.1c2.1-3.1,4.5-8.9,5-14.2
			c0.4-4.6-1.6-8.8-4.8-10.2c-0.6-0.3-1.3-0.4-2-0.6c2.4-5.5,12.6-29.3,13-37.2c0.1-1.7,0-3.6-0.3-5.4c0.4,0.2,0.8,0.3,1.3,0.3
			c0.4,0,0.8-0.1,1.2-0.2c6.9-2.8,18.6-33.9,21.3-52.8c1.8,2.2,4,3.5,6.5,4c4.3,0.8,8.3-1.3,10-2.3c0.9,0.8,1.9,1.6,2.8,2.2
			c1.9,1.3,3.9,2.4,6.1,3.1c2.2,0.8,4.4,1.2,6.7,1.4c4.6,0.3,9.1-0.7,13.3-2.2c1.1-0.4,2.1-0.9,3.1-1.3l3-1.5c2-1,3.9-2.2,5.7-3.5
			c1.8-1.4,3.4-3,4.7-4.9c1.3-1.9,2.2-4,2.8-6.2c1.1-4.5,0.6-9.1-0.4-13.5C441.7,127.8,438.4,121.4,435.8,119.5z M413.3,277.7
			c3.4,0,6.2,2.8,6.2,6.2s-2.8,6.2-6.2,6.2s-6.2-2.8-6.2-6.2S409.8,277.7,413.3,277.7z M418.1,246.8c2.6,0,4.7,2.1,4.7,4.7
			c0,2.6-2.1,4.7-4.7,4.7c-2.6,0-4.7-2.1-4.7-4.7C413.4,249,415.5,246.8,418.1,246.8z M412.7,219.3c3.2,0,5.7,2.6,5.7,5.7
			c0,3.2-2.6,5.7-5.7,5.7c-3.2,0-5.7-2.6-5.7-5.7C407,221.8,409.5,219.3,412.7,219.3z M361.8,230.5c-2.4,0-4.4-2-4.4-4.4
			s2-4.4,4.4-4.4s4.4,2,4.4,4.4S364.3,230.5,361.8,230.5z M352.7,252.3c-1.8,0-3.3-1.5-3.3-3.3c0-1.8,1.5-3.3,3.3-3.3
			s3.3,1.5,3.3,3.3C356,250.8,354.5,252.3,352.7,252.3z M360.4,282.5c-2.5,0-4.5-2-4.5-4.5s2-4.5,4.5-4.5s4.5,2,4.5,4.5
			S362.9,282.5,360.4,282.5z M387.7,281c-0.6,0.6-1.2,1.1-1.9,1.4c-0.3,0.2-0.7,0.3-1,0.4c0.3-4.2,3.9-8.3,8.2-9.6
			c0.1,2.9,0,5.9-1.3,8.5c-1.3,2.6-4.3,5.5-6.9,4.7v-1.3c0.8-0.1,1.5-0.3,2.2-0.7c0.9-0.5,1.7-1.3,2.3-2.1c0.6-0.8,1.1-1.7,1.4-2.6
			c0.3-0.9,0.5-1.9,0.5-2.8C389.9,278.4,388.8,279.9,387.7,281z M377.2,200.6c0-3.7,3-6.6,6.6-6.6s6.6,3,6.6,6.6s-3,6.6-6.6,6.6
			S377.2,204.2,377.2,200.6z M371.7,252.5c0-6.7,5.4-12.1,12.1-12.1s12.1,5.4,12.1,12.1s-5.4,12.1-12.1,12.1
			S371.7,259.2,371.7,252.5z M375.3,283.1c-1.3-2.6-1.4-5.7-1.3-8.5c4.1,1.2,8.1,4.6,8.8,8.6v0.3c-0.5,0-1-0.1-1.5-0.2
			c-0.6-0.2-1.3-0.5-1.9-0.8c-0.6-0.4-1.2-0.9-1.8-1.4c-0.6-0.5-1.2-1.1-1.7-1.7c0.3,1.7,1.2,3.2,2.5,4.5c0.7,0.6,1.5,1.1,2.4,1.4
			c0.7,0.2,1.4,0.3,2.1,0.3v1C380.1,287.1,376.5,285.5,375.3,283.1z M380.8,373.4c0,0-1.1-0.5-1.2-1.5c0-0.6,0.4-0.9,0.7-0.9
			l2.8-0.6l-2.6-1.3c0,0-1.2-0.7-1-1.3c0.1-0.3,1-0.9,2.5-1.1c0.4-0.1,0.8-0.1,1.2-0.1c1.4,0,2.6,0.4,3.2,1c1.9,2.2,3.5,6.7,0.9,9.4
			c-2.4,2.5-5.2,1.6-6,1.3c-1.3-0.5-2.1-1.4-2.1-1.8c0-0.8,1.1-1,1.1-1l3-0.6L380.8,373.4z M430.2,124.1c-0.8-1.2-1.6-2.3-2.8-3.3
			c-0.7-0.6-1.4-1-2.3-1.4c1.2-0.7,2.6-1,4.1-0.9c2,0.1,4,0.9,5.6,2.1c0.5,0.4,1.3,1.3,1.3,1.3c1.3,3.7-0.4,8.4-3,11.8
			c0-0.6,0-1.3-0.1-1.9C432.7,129.2,431.7,126.5,430.2,124.1z M181.5,270.7c-0.9-2.3-2.6-8.2-1.9-13.9c0.4-3.8,2.6-6.7,5.2-7.2
			c3.6-0.7,7.8,1.8,9.3,2.8l0.3,15.6c-0.4-2.3-1.3-4.4-2.7-6.1c-0.8-1-1.8-1.9-2.8-2.6c-1.1-0.7-2.2-1.3-3.4-1.6
			c1.1,0.6,2.1,1.3,3,2.1c0.9,0.8,1.6,1.8,2.2,2.8c1.2,2,1.9,4.3,2,6.6c0,1.1-0.2,2.2-0.7,3.1c-0.4,0.9-1.2,1.4-2,1.6
			c-0.9,0.1-1.8-0.2-2.3-0.9c-0.5-0.6-0.7-1.6-0.5-2.4c0.6-0.4,1.6-0.6,2.5-0.2c-0.7-1-2.3-1.7-3.9-1.2l-0.3,0.1l-0.2,0.5l0,0
			c-0.6,1.5-0.3,3.2,0.6,4.5c1,1.3,2.7,2,4.3,1.8c1.7-0.2,3-1.5,3.6-2.8c0.3-0.7,0.5-1.4,0.6-2.1l0.4,18.6
			C188.4,283.9,184.8,278.8,181.5,270.7z M223,320.9l-2-1.9l1.4,15l-15.9-24.5l39.3,15.2c3,1.2,6.3,2.4,9.9,3.3
			c0.2,1.5,0.7,5.5-0.3,9.4l-16.3-9.8l0.1,1.9c0,0,0.2,2.8,0.3,5C232.6,330.4,223.1,321,223,320.9z M257.7,328.3
			c1.5,0.2,3,0.4,4.4,0.4c1.2,0,2.4-0.1,3.6-0.3c2.4-0.4,4.7-1.3,6.8-2.1c-0.5,8.7,3.2,14.9,7.6,17.6c-3,8.5-7.1,15.3-13,15.3
			c-7,0-12.7-7.7-16.5-12.1c-0.1-0.1-0.3,0.3-0.4,0.2C258.6,342.8,258.2,332.2,257.7,328.3z M196.1,431.9c-1.4,0.7-2.9,1.4-4.4,1.9
			c-1.4,0.5-3,0.9-4.2,0.7c-0.6-0.1-1-0.4-1-0.7c0-0.1,0-0.3,0.1-0.4c0,0,0,0,0,0l0.3-0.2c0.2-0.2,0.4-0.3,0.5-0.5
			c1.2-1.3,2.1-2.6,3-4c1.6-2.4,3.1-4.8,4.6-7.2c1.2,1.4,2.8,2.5,4.2,3.5l4.4,2.9C201.1,429.3,198.7,430.7,196.1,431.9z
			 M221.3,436.1c-1.2,0.4-2.7-0.5-3.9-1.3l-17.1-11.5c-2.2-1.5-4-2.8-4.8-4.7c-1.6-3.6,1.1-8.1,3-11.3c1.9-3.1,3.7-6,5.7-8.9
			c0.9,4,2.5,7.8,4.6,11.2c2.2,3.6,4.9,6.7,8.1,9.4c-1.2-1.7-2.3-3.4-3.4-5.1c-1.1-1.7-2.1-3.4-3-5.2c-0.9-1.8-1.7-3.6-2.5-5.5
			c-0.3-0.7-0.5-1.3-0.7-2c7.1,6.7,15.2,13.1,23.2,18.4c-1.6,5.9-3.9,10.8-7.2,14.8C222.6,435.4,222,435.9,221.3,436.1z
			 M226.8,484.9c-0.3,1.6-0.6,3.3-0.8,4.9c-14.6,7.1-23.1,2.8-24.2,2.3c-1.3-1.5-1.2-1.7,3.1-11c2.4-5.1,5.2-11.5,8.2-18.2
			c4-9,8.5-19.1,13.2-29.2c5.4-7.8,8.1-18.3,8.3-32c0.1-4.1-0.1-8.2-0.2-12.1c-0.2-5.9-0.4-11.5,0-17.3c0.4,1.3,0.9,2.6,1.6,3.9
			c0.7,1.4,1.6,2.8,2.8,4c-0.4-1.6-0.8-3.1-1.3-4.6c-0.4-1.5-0.9-3-1.4-4.5l-1.4-4.4c-0.5-1.5-0.9-3-1.4-4.5
			c-0.3,1.5-1.2,20.1-0.9,27.5c0.1,3.9,0.3,7.9,0.2,12c-0.1,5.9-0.7,11.3-1.7,16c-8.9-6-17.9-13.4-25.6-21c1-1.5,2-2.9,3-4.5
			c3.1-4.7,6.6-9.9,11-16.7c0.3-0.5,0.7-1.1,1-1.7c-0.2,1.2-0.4,2.4-0.7,3.6c-0.4,1.6-0.8,3.2-1.2,4.8c-0.4,1.6-0.9,3.2-1.4,4.9
			c2-2.8,3.5-5.9,4.5-9.2c0.5-1.6,0.9-3.3,1.2-5c0.2-1.5,0.3-3.1,0.2-4.6c1.1-2.5,2.1-5.1,3.1-7.7c3-7.6,6.3-16.2,9.9-18.4
			c-0.1,0.9-0.1,1.7-0.1,2.6c0,3.6,0.6,7,1.2,10.5c1.3,6.9,3,13.6,4.6,20.3c1.6,6.7,3.3,13.4,4.5,20.2c1.3,6.8,2.3,13.6,2.4,20.4
			c0,1.7,0,3.4-0.1,5.1c-0.1,1.7-0.3,3.4-0.5,5.1c-0.3,1.7-0.6,3.4-1,5c-0.4,1.6-0.8,3.3-1.4,4.9c-2.1,6.5-4.9,12.8-7.9,19.1
			c-2.9,6.3-5.8,12.6-8.1,19.3C228.5,478.1,227.6,481.5,226.8,484.9z M241.5,494.6c-2,4.7-5.3,12.6-14.7,11.2
			c-1-0.2-3.4-0.7-3.9-2.6c-0.5-1.7,0.7-4,3.2-6.6c1,1.6,2.4,2.6,4.1,2.8c0.3,0,0.6,0.1,0.9,0.1c3.2,0,7.2-2.3,11-6.4c0,0,0,0,0,0
			C242,493.5,241.7,494,241.5,494.6z M227.6,495.1c0.4-0.4,0.8-0.7,1.3-1.1c0.4,0.1,0.8,0.2,1.2,0.3c1.8,0.3,3.6,0.3,5.4,0.2
			c0.9-0.1,1.8-0.2,2.6-0.4c-2.8,2.4-5.6,3.6-7.6,3.3C229.2,497.1,228.3,496.4,227.6,495.1z M241.6,490.5l-0.3,0.5
			c-0.1,0.1,0,0,0,0.1c0,0,0,0,0,0l-0.1,0.1c0,0-0.1,0-0.1,0l0,0c0,0-0.1,0.1-0.1,0.1c-0.3,0.1-0.5,0.3-0.8,0.4
			c-1.5,0.5-3.2,0.8-4.8,1c-1.7,0.1-3.4,0.1-4.9-0.2c-0.8-0.1-1.5-0.4-2.1-0.7c-0.3-0.2-0.4-0.4-0.5-0.5c0-0.1-0.1-0.2-0.1-0.3
			c0-0.1,0-0.1,0-0.2l0-0.3c0.3-1.7,0.5-3.4,0.9-5.1c0.7-3.3,1.6-6.7,2.7-9.9c2.2-6.5,5.1-12.8,8-19c2.9-6.3,5.9-12.6,8-19.3
			c0.6-1.7,1-3.4,1.4-5.1c0.4-1.7,0.7-3.5,1-5.2c0.2-1.8,0.4-3.5,0.5-5.3c0.1-1.8,0.1-3.5,0.1-5.3c-0.2-7-1.2-14-2.5-20.8
			c-1.3-6.8-2.9-13.6-4.6-20.3c-1.6-6.7-3.4-13.4-4.6-20.2c-0.6-3.4-1.1-6.8-1.2-10.1c0-1.7,0.1-3.3,0.5-4.9c0.3-1.2,0.8-2.2,1.5-3
			c0.1,0.1,0.2,0.1,0.4,0.2l1.5,0.7l-0.1-1.7c0-1.2-0.2-3.4-0.3-4.9l13.5,8.1c-1.1,2.8-3.1,5.4-6.6,6.9c-0.1-1.9-0.2-3.8-0.4-5.7
			c-0.9,3.4-0.9,6.9-0.8,10.4c0.1,3.5,0.4,6.9,0.7,10.4c0.7,6.9,1.6,13.8,2.6,20.6c1.9,13.7,4,27.4,5,41.2
			c0.5,6.9,0.7,13.8,0.3,20.7c-0.2,3.4-0.5,6.9-1.1,10.2c-0.2,1.7-0.7,3.4-1,5c-0.5,1.6-0.9,3.3-1.4,4.9c-2.1,6.5-4.6,13-7.2,19.4
			c-0.6,1.6-1.3,3.2-2,4.8C242.4,488.9,242,489.7,241.6,490.5z M271.2,490.3c-3.1,0.5-6.3,1-9.2,1.1c-2.1,0.1-3.9,0.4-5.6,0.7
			c-2.4,0.4-4.5,0.7-6.9,0.5c0.9-1.5,1.6-3.1,2.3-4.7c0.8-2,1.4-4.1,1.9-6.2c0.4-2.1,0.8-4.3,0.8-6.4c0.1-2.2-0.1-4.3-0.7-6.4
			c-0.2,2.1-0.4,4.2-0.7,6.3c-0.3,2.1-0.7,4.1-1.2,6.1c-0.6,2-1.2,4-2,5.9c-0.8,1.8-1.6,3.5-2.6,5.1c-1.2-0.2-2.5-0.6-3.9-1.1
			c0.4-0.8,0.8-1.6,1.1-2.4c0.7-1.6,1.4-3.2,2-4.8c2.6-6.4,5-12.9,7.2-19.6c0.5-1.7,1-3.4,1.4-5.1c0.4-1.7,0.8-3.4,1-5.2
			c0.6-3.4,0.9-6.9,1.1-10.4c0.4-7,0.2-13.9-0.3-20.9c-1-13.9-3.2-27.6-5.1-41.3c-1-6.9-2-13.7-2.7-20.6c-0.3-3.4-0.6-6.9-0.8-10.3
			c0-0.9-0.1-1.7-0.1-2.6c0.1,0,0.2-0.1,0.2-0.1c0.2,0.2,0.4,0.5,0.7,0.8c3.7,4.4,10.4,12.2,17.8,12.2c0.6,0,1.2-0.1,1.8-0.2
			c5.4-1,10-6.3,13.8-15.9c0.4,0.2,0.9,0.3,1.3,0.4l0-0.1c-0.1,1.3-0.1,2.6-0.2,3.9l-0.5,5.4l-0.6,5.4c-0.9,7.2-1.9,14.5-2.9,21.7
			c-2.1,14.5-4.3,28.9-5.9,43.5c-0.4,3.6-0.7,7.3-1.1,10.9c-0.2,3.7-0.6,7.3-0.6,11c-0.2,3.7-0.1,7.4,0.1,11c0.2,3.7,0.5,7.3,1,11
			c0.5,3.7,1.2,7.3,2.2,10.9c0.9,3.1,2,6.2,3.7,9C276.3,489.6,273.7,490,271.2,490.3z M303.1,506c-2.8,1.6-5.5,1.7-8,0.4
			c-3.6-1.9-6.2-6.3-7.1-9.5c0.3,0.1,0.5,0.2,0.8,0.2c1.4,2.4,4.6,4.5,8.3,4.5c0.7,0,1.5-0.1,2.3-0.3c1.5-0.4,2.7-1.3,3.4-2.6
			c0.2-0.4,0.4-0.9,0.5-1.4c0.1,0.4,0.2,0.8,0.4,1.2C304.8,502.2,305.4,504.7,303.1,506z M291.6,497.5c1.1,0,2.2-0.1,3.3-0.4
			c1.9-0.5,3.8-1.6,5.1-3.2l0.1-0.2c0.4,0.2,0.8,0.3,1.2,0.4c0.4,1.3,0.3,2.7-0.3,3.7c-0.5,0.8-1.2,1.4-2.1,1.6
			C296.1,500.1,293.3,499.1,291.6,497.5z M367.5,399.8c0.5-6.5,1.2-13,2.3-19.4C369.6,386.5,368.8,393.2,367.5,399.8z M372.2,368
			l5.5,0.8c0.1,0.4,0.4,0.8,0.7,1.1c-0.5,0.5-0.8,1.2-0.8,2.1c0.1,0.9,0.5,1.6,0.9,2.1c-0.6,0.5-1.1,1.2-1.1,2.2c0,0,0,0.1,0,0.1
			l-6.8-0.8C371.1,373.1,371.7,370.5,372.2,368z M370.6,365.9c-3.3,14.3-5.2,28.9-5.5,43.6c-4.5,0.2-8.9-0.5-13.3-1.9
			c-1.5-15.2-0.1-31,4-45.7C360.7,363.3,365.7,364.6,370.6,365.9z M294.7,351.7c0.4-3.1,0.8-6.4,0.1-9.8c8.7,3.2,17.4,6.3,26.1,9.3
			c-0.4,0-0.8,0-1.2,0.1c-2.8,0.2-5.5,0.5-8.3,1.2l8.3,0.5c2.5,0.2,5,0.4,7.5,0.3c8.8,2.9,17.7,5.6,26.7,8.1
			c-3.9,14-5.4,28.3-4.3,42.8c-0.5-1-1.1-2-1.7-3c-1-1.7-2.1-3.2-3.3-4.8c-1.2-1.5-2.4-3-3.7-4.4c-1.3-1.4-2.7-2.7-4.2-3.9l-0.1,0.2
			c1.4,1.3,2.7,2.7,3.9,4.2c1.2,1.5,2.3,3,3.3,4.6c1,1.6,2,3.2,2.9,4.9c0.4,0.8,0.8,1.6,1.2,2.4c-1.7-1.1-3.2-2.4-4.7-3.8
			c-2.2-2-4.1-4.4-5.8-6.8c-1.7-2.4-3.2-5-4.5-7.8c-1.3-2.7-2.3-5.5-3.6-8.4c0.1,3.1,1,6.1,2.2,9c1.2,2.9,2.6,5.6,4.3,8.2
			c1.7,2.6,3.7,5,5.9,7.2c1.2,1.2,2.5,2.2,3.8,3.2c-4.4-1.8-8.7-4.1-13-6.3c-1.7-2.5-3.4-5-4.9-7.7c-0.8-1.4-1.6-2.8-2.3-4.3
			c-0.7-1.5-1.3-3-1.8-4.6l-0.1,0c0.3,1.6,0.7,3.2,1.1,4.8c0.5,1.6,1,3.2,1.7,4.7c0.8,1.8,1.7,3.5,2.7,5.1c-0.3-0.2-0.6-0.3-0.9-0.5
			l-9.2-4.8l-4.6-2.4c-1.5-0.8-3-1.6-4.3-2.5c-1.3-1-2.3-2.1-3-3.6c-0.7-1.4-1.1-3-1.2-4.7c-0.4-3.3,0.1-6.6-0.2-10.2l-0.1,0
			c-1,1.9-1.5,4-1.7,6.1c0,0,0-0.1,0-0.1c-0.5-2.3-0.8-4.5-1-6.9l-0.3,0c-0.5,2.4-0.4,4.8-0.2,7.2c0.1,1.2,0.3,2.4,0.6,3.6
			c0.3,1.2,0.7,2.3,1.4,3.4c0.2,0.7,0.4,1.3,0.7,1.9c0.3,9.4,0.7,18.8,2.1,28.1c0.7,4.7,1.6,9.3,2.9,13.9c0.6,2.3,1.3,4.6,2.2,6.8
			c0.8,2.2,1.8,4.4,2.7,6.6c3.7,8.6,7.4,17.3,10.8,26c1.7,4.4,3.3,8.8,4.7,13.2c0.7,2.2,1.2,4.5,1.7,6.7c0.4,2,0.6,4.1,0.7,6
			c-3.3,0.7-6.6,1.2-9.9,1c-1.7-0.1-3.5-0.4-4.8-1.3c-0.3-0.3-0.6-0.4-0.9-0.8l-0.9-1c-0.6-0.7-1.2-1.4-1.7-2.1
			c-0.5-0.7-1-1.5-1.5-2.3l-1.5-2.4l-2.9-4.7c-1.9-3.1-3.9-6.3-6.4-9.1c1.4,3.5,3.2,6.7,5.1,9.9l2.8,4.8l1.4,2.4
			c0.5,0.8,0.9,1.6,1.4,2.4c0.5,0.8,1.1,1.5,1.7,2.2c-0.9,0.3-1.8,0.6-2.7,1c-3.1,1.3-6.5,2.8-12.3,0.2c-2.1-6-4.5-11.9-6.9-17.8
			c-1.3-3.2-2.5-6.4-3.6-9.6c-1-3.3-2-6.5-2.7-9.9c-2.9-13.4-2.6-27.3-1.3-40.9c1.4-13.7,3.9-27.3,6.3-40.9
			C292.5,365.4,293.7,358.5,294.7,351.7z M290.5,337.3c1,1.2,1.7,2.7,2.1,4.2c0.9,3.1,0.5,6.5,0.1,9.9c-1,6.8-2.1,13.6-3.3,20.4
			c-2.4,13.6-4.9,27.2-6.3,41c-0.6,6.9-1.1,13.8-1,20.8c0.1,7,0.8,13.9,2.3,20.8c0.7,3.4,1.7,6.8,2.8,10.1c1.1,3.3,2.4,6.6,3.7,9.8
			c2.5,6.2,5.1,12.4,7.2,18.7c-1,1-2.2,1.8-3.7,2.1c-1.6,0.4-3.3,0.4-5,0.1c-3.3-0.7-6.1-3-8.1-5.8c-2-2.9-3.2-6.2-4.2-9.7
			c-1-3.5-1.6-7-2.1-10.6c-2-14.4-1.1-29,0.5-43.5c1.6-14.5,3.6-29,5.6-43.4c1-7.2,2-14.5,2.8-21.8l0.6-5.5l0.4-5.5
			c0.1-1.8,0.2-3.7,0.2-5.5c0.1-0.9-0.1-1.8-0.2-2.8c-0.1-0.9-0.3-1.8-0.5-2.7c-0.4,1.7-0.5,3.4-0.6,5c-2.1-0.5-4.4-2.3-6.2-4.9
			l2.8-5.4l0.6,6.8l1.5-1.2c0.2-0.2,2.1-1.8,4.6-3.9C288.5,335.5,289.7,336.3,290.5,337.3z M313,316.1c-2,3.2-6.1,8.1-8.5,10.9
			l0.5-11.7l-1.9,2.1c0,0-3.3,3.6-5.5,5.8c-1.9,1.9-11.2,9.8-14.8,12.8l-0.9-9.7l-5.3,10.2c-1.5-3-2.3-6.8-1.9-11.1
			c14.9-6.1,29.4-12.5,42.2-21.7C316.6,306.6,315.7,311.7,313,316.1z M323.4,290.7c-0.5,2.1-1,4.5-2.3,6.5c-1.2,1.9-3,3.3-4.8,4.6
			c-13.1,9.5-28.1,16-43.6,22.3c-2.2,0.9-4.8,1.9-7.3,2.4c-6.5,1.1-13.4-1.5-18.9-3.7l-40.3-15.6c-2.1-0.8-4.2-1.6-5.8-3.2
			c-3-2.9-3.4-7.7-3.5-12.4l-1.4-63.1c14.7-11.9,26.5-24,35.6-36.5c-1.3,6.8-1.9,13.7-2,20.7c0.1,7.7,0.9,15.3,2.5,22.8
			c0.7,3.3,1.5,6.5,2.4,9.7c-2-3-4.7-5.2-7.6-6.7v-0.1c-0.1,0-0.1,0-0.2,0c-3.1-1.6-6.6-2.5-10-2.7c-5-0.3-9.7,1.2-13.3,4.4
			c-3.8,3.4-6,8.4-6.3,14.1c-0.6,11.8,5.3,21.3,15.6,25.3c2.4,1,5,1.4,7.6,1.4c3.9,0,7.7-1.1,10.7-3.2c3.7-2.6,8-8,7.5-18.9
			c0-0.6-0.1-1.2-0.1-1.8c0.1,0.2,0.1,0.4,0.2,0.5v0l0.7,1.9l1.1-1.8c3-5.1,5.8-10.3,8.6-15.5c2.1-3.9,4.2-7.9,6.2-11.9
			c0,0.4,0,0.9,0,1.3c0,2.6,0,5.1,0,7.7c0,2.6,0.1,5.1,0.3,7.7l0.1,1.8l1.2-1.2l0,0c2.9-2.3,5.3-5.1,7.5-8c2.2-2.9,4.2-5.9,6.1-9
			c1.9-3.1,3.6-6.2,5.3-9.4c1.6-3.2,3.3-6.5,4.6-9.8c1.6-3.6,3-7.3,4.4-11c0.2,2.6,0.7,5.2,1.5,7.7c0.7,2.2,1.5,4.3,2.6,6.3
			c1.1,2,2.2,3.9,3.8,5.7l0.2,0.2c-0.4,0-0.8-0.1-1.2-0.1c-5.4,0-9.7,2.6-9.7,5.8s4.3,5.8,9.7,5.8s9.7-2.6,9.7-5.8
			c0-2-1.7-3.9-4.5-4.9l-3-0.7l0.2-0.2c1.3-1,2.3-2.1,3.3-3.2c1-1.1,2-2.2,2.9-3.4c1.9-2.3,3.6-4.7,5.2-7.2c1.7-2.5,3-5.2,4.3-7.8
			c0.7-1.4,1.4-2.8,2-4.2c0.3,4,0.8,8,1.4,12c0.8,5.4,1.9,10.7,3.3,15.9c1.4,5.2,3,10.4,5,15.5c1.9,5.1,4.2,10,6.8,14.8l0.6,1.1
			l0.9-0.8c0.5-0.5,1.1-0.9,1.6-1.4C329,262.5,326.1,278.7,323.4,290.7z M220.8,257.1c-0.7-0.3-1.4-0.5-2.1-0.6
			c-0.2-0.7-0.3-1.4-0.3-2.1c0-1.9,0.7-3.8,1.9-5.2c1.6,1.1,3.8,1.8,6.3,1.8c1.6,0,3.1-0.3,4.4-0.8c0.8,1.2,1.2,2.7,1.2,4.2
			c0,4.1-3.1,7.5-6.9,7.5c0,0-0.1,0-0.1,0C224.8,259.8,223.2,258.1,220.8,257.1z M223.1,262.5c0,0.3,0,0.5-0.1,0.8
			c-0.6,2-3.5,3.5-6.6,3.5c-3.7,0-6.8-1.9-6.8-4.3s3.1-4.3,6.8-4.3c1.3,0,2.5,0.2,3.6,0.7C221.9,259.7,223.1,261.1,223.1,262.5z
			 M226.5,249c-3.7,0-6.8-1.9-6.8-4.3c0-2.2,2.8-4.1,6.3-4.2c2.7,1.5,4.9,3.5,6.5,6.1C231.4,248.1,229,249,226.5,249z M209,254.7
			c0,1.3,0.1,2.6,0.3,3.9l0.2,0c-1.2,1.1-1.9,2.4-1.9,4c0,2.9,2.6,5.3,6.3,6c2.5,2.4,6.6,4.8,10.4,4.8c4.8,0,8.8-2.5,11.3-6.8
			c-1,4.2-3,7.5-6,9.6c-4.4,3.2-10.9,3.8-16.4,1.6c-9.5-3.7-14.9-12.5-14.4-23.4c0.2-5.2,2.2-9.7,5.6-12.7c3.2-2.8,7.2-4.2,11.8-3.9
			c0.5,0,1,0.1,1.5,0.2C212.5,241,209,247.4,209,254.7z M224.4,271.3c-2.3,0-4.9-1.2-7-2.6c3.7-0.3,6.8-2.2,7.6-4.8
			c0.1,0,0.2,0,0.3,0c4.9,0,8.9-4.3,8.9-9.5c0-1.8-0.5-3.6-1.4-5.1c0.4-0.2,0.7-0.5,1-0.8c1.5,3,2.4,6.5,2.6,10.5
			C234.9,266.6,230.5,271.3,224.4,271.3z M292.8,222.3l3,0.7c1.9,0.7,3.1,1.9,3.1,3c0,1.8-3.2,3.8-7.7,3.8c-4.5,0-7.7-2-7.7-3.8
			s3.2-3.8,7.7-3.8C291.7,222.2,292.3,222.3,292.8,222.3z M342.9,253.7c2.4,1,3.9,4.4,3.6,8.1c-0.5,5.7-3.3,11.2-4.7,13.3
			c-4.7,7-9.2,11.3-16.4,15.5c1.2-5.2,2.4-11.1,3.5-17.2c0,0,0,0,0,0c0.3,1.4,1.3,3,2.8,3.6c1.5,0.6,3.3,0.4,4.6-0.7
			c1.2-1.1,1.9-2.6,1.7-4.2l0,0l-0.1-0.5l-0.3-0.2c-1.5-0.9-3.1-0.6-4.1,0.2c1-0.2,1.9,0.2,2.4,0.8c0,0.8-0.4,1.7-1.1,2.2
			c-0.6,0.5-1.6,0.7-2.4,0.3c-0.8-0.3-1.4-1-1.6-2c-0.2-1-0.2-2.1,0.1-3.2c0.6-2.2,1.8-4.3,3.5-5.9c0.8-0.8,1.8-1.6,2.8-2.2
			c1-0.6,2.2-1.1,3.4-1.4c-1.2,0-2.5,0.3-3.7,0.7c-1.2,0.5-2.3,1.1-3.3,1.9c-1.5,1.2-2.8,2.7-3.7,4.4c0.8-4.3,1.6-8.6,2.3-12.8
			l0.1,0.3C332.6,254.8,338.7,251.9,342.9,253.7z M352.7,213.9c-0.4,7.9-11.5,33.5-13.2,37.2c-2.8,0-5.4,0.9-6.8,1.4
			c0.3-1.5,0.5-2.9,0.8-4.3c0.4-0.7,0.9-1.4,1.2-2.1c0.7-1.3,1.3-2.5,1.8-3.9c0.5-1.3,0.9-2.7,1.2-4c-1.3,2.5-2.8,4.8-4.4,7
			c-0.8,1.1-1.7,2.1-2.5,3.1c-0.6,0.7-1.2,1.3-1.8,2c-2.3-4.3-4.3-8.8-6.1-13.4c-1.9-5-3.6-10.1-4.9-15.3
			c-1.4-5.2-2.5-10.4-3.3-15.7c-0.8-5.3-1.4-10.6-1.6-15.9l-0.1-4.5l-1.8,4.1c-1.2,2.7-2.4,5.3-3.7,8c-1.3,2.6-2.6,5.2-4.2,7.6
			c-1.6,2.4-3.3,4.8-5.1,7.1c-0.9,1.1-1.8,2.2-2.8,3.3c-0.7,0.8-1.5,1.6-2.3,2.3c-1.1-1.4-2-2.9-2.9-4.5c-1-1.9-1.8-3.9-2.4-5.9
			c-1.3-4.1-1.8-8.4-1.5-12.7l0,0c0.4-1.2,0.8-2.4,1.1-3.7c2-6.9,3.5-14.1,3.1-21.3c-1.6,7-3.1,13.9-5.1,20.7
			c-2.1,6.8-4.7,13.4-7.5,20c-2.8,6.5-6.1,12.9-9.7,19c-1.8,3-3.7,6.1-5.8,8.9c-1.7,2.3-3.5,4.5-5.5,6.5c0.1-1.9,0.1-3.8,0.1-5.7
			c0-2.6,0-5.1,0-7.7c0-2.6,0-5.1-0.2-7.7c-0.1-2.6-0.3-5.1-0.9-7.7c-0.5,2.6-0.8,5.1-0.9,7.7c0,0.6,0,1.2-0.1,1.8
			c-2.7,5.2-5.4,10.4-8.1,15.5c-2.4,4.6-4.9,9.1-7.5,13.6c-2.3-6.4-4.1-13-5.4-19.7c-1.5-7.4-2.3-14.9-2.4-22.4
			c-0.1-7.5,0.5-15,2-22.4c0.7-3.7,1.8-7.3,2.9-10.9c1.1-3.6,2.3-7.1,3.7-10.7c-2.4,3-4.1,6.5-5.5,10.1c-1,2.7-1.8,5.4-2.5,8.1
			c-14.4,21.2-36.4,41.2-67.3,61c2.5-18.4,6.3-39.3,14.1-57.4c0.5-0.1,1-0.3,1.5-0.4c2.6-0.8,5.3-1.6,7.8-2.8c-2.8,0-5.5,0.5-8.2,1
			c-2.7,0.5-5.4,1.1-8.1,1.7c-2.7,0.6-5.4,1.2-8,1.9c-1.5,0.4-3,0.8-4.5,1.2c2.1-2.1,4.4-4.1,6.7-6c3.2-2.7,6.7-5.1,10.3-7.2
			c3.6-2.2,7.3-4.1,11.2-5.8c3.9-1.7,7.8-3,11.7-4.8c-4,0.2-7.8,1.3-11.4,2.8c-3.4-2.8-6.8-5.5-10.2-8.2l-5.4-4.2
			c-1.4-1.1-2.9-2.2-4.3-3.2l6.1-0.2l7.5-0.2c5-0.1,10.1-0.1,15.1,0c5,0.1,10,0.4,15.1,0.7c5,0.3,10,0.8,15.1,0.9
			c-3-0.8-6-1.4-9-1.8c-9-12.7-17.3-25.8-26.3-38.6l9.6,2c3.8,0.8,7.5,1.7,11.3,2.6c7.5,1.8,14.9,3.9,22.2,6.4
			c7.3,2.5,14.3,5.5,21.2,8.9c3.5,1.7,6.9,3.5,10.2,5.3c1.7,0.9,3.4,1.8,5,2.8c1.6,1,3.3,2,4.8,3.2c-1.2-1.5-2.7-2.8-4.2-4
			c-1.5-1.2-3.1-2.3-4.8-3.4c-1.6-1-3.2-2-4.9-2.9l0,0c-1.9-2.9-3.7-5.9-5.4-9c2.4,1.1,4.8,2.4,7.1,3.6c3.1,1.6,6.1,3.2,9.1,5
			c3,1.8,5.9,3.6,8.7,5.6c2.8,2,5.4,4.1,8,6.5c-0.4-0.8-0.8-1.6-1.3-2.4c-0.5-0.7-1.1-1.4-1.6-2.1c-0.5-0.6-1.1-1.1-1.7-1.7
			c0-0.6-0.1-1-0.2-1.6c-0.1-0.6-0.3-1.3-0.4-1.9c-0.1-0.2-0.1-0.5-0.2-0.7c2.5,2.1,5,4.2,7.4,6.5c3.1,3,6.1,6,9,9.2
			c2.9,3.2,5.7,6.4,8.4,9.7c2.7,3.3,5.5,6.6,8.4,9.9c-1.5-3.2-3.4-6.2-5.5-9.1l-0.6-11.5c3.9,3.2,14.1,11.8,24.1,22.8
			C344.3,186.4,353.3,202.7,352.7,213.9z M441.5,144.2c-0.6,2-1.4,4-2.6,5.7c-1.2,1.7-2.7,3.2-4.4,4.5c-1.7,1.3-3.5,2.4-5.5,3.4
			c-1,0.5-1.9,1-2.9,1.4c-1,0.4-2,0.9-3,1.2c-4,1.5-8.3,2.2-12.6,1.8c-4.2-0.3-8.3-1.9-11.8-4.2c-1.8-1.1-3.4-2.5-5-4
			c-1.6-1.5-3.1-3-4.6-4.6c0.8,2.5,2.3,4.8,4.1,6.7c-1.6,1-4.8,2.4-8.2,1.8c-2.5-0.5-4.7-2.1-6.5-4.9c0.4-3.7,1-7.8,1.9-11.9
			c4.3-4.3,6.7-10.4,6.4-16.5l-0.1-2.6l-1.7,2c-3.2,4-5.4,10.9-6.7,17.1c-0.9-0.9-1.6-1.9-2.2-3.1c-0.9-1.6-1.5-3.4-2-5.3
			c-0.5-1.9-0.8-3.8-1.1-5.7c-0.2-1.9-0.4-3.9-0.5-5.9c-0.3,2-0.5,3.9-0.5,5.9c0,2,0.1,4,0.4,6c0.3,2,0.8,4,1.8,5.9
			c0.8,1.7,2,3.3,3.5,4.4c-0.5,2.6-0.9,4.9-1.1,6.7l0,0l-0.2,2c-2.7,3.6-5.2,7.4-8.1,10.6c-1.5,1.7-3.2,3.2-5,4.6
			c-1.8,1.4-3.7,2.6-5.7,3.8c2.2-0.7,4.4-1.5,6.5-2.7c2.1-1.2,4-2.6,5.7-4.3c2.4-2.3,4.4-4.9,6.2-7.7c-3,18.9-14.3,48-20,50.3
			c-0.5,0.2-0.7,0.1-0.9-0.1c-0.5-0.4-1-0.8-1.5-1.2c-2.8-11.4-11.1-23.8-16.8-30.2c-12.8-14.1-25.9-24.3-26-24.5l-1.7-1.3l0.7,12.9
			c-2.4-3.1-4.9-6.2-7.5-9.1c-2.9-3.3-6-6.3-9.1-9.3l-2.4-2.2c-0.8-0.7-1.7-1.4-2.5-2.1c-1.7-1.4-3.5-2.6-5.2-3.9l-2.4-1.7l1.1,2.8
			l0,0c0.4,1.1,0.8,2.3,1.1,3.5c0.1,0.4,0.2,0.8,0.3,1.2c0,0-0.1-0.1-0.1-0.1c-2.8-2.2-5.7-4.1-8.7-5.9c-3-1.8-6.1-3.4-9.3-5
			c-1.6-0.8-3.2-1.5-4.8-2.2c-1.6-0.7-3.2-1.4-4.9-2l0,0l-1.9-0.7l0.9,1.8c1,2,2,3.9,3.1,5.8c0.6,1.1,1.3,2.1,1.9,3.2
			c-0.8-0.4-1.6-0.8-2.4-1.2c-3.5-1.7-7-3.4-10.5-4.9c-1.8-0.8-3.6-1.5-5.4-2.2c17.9-10.6,36.8-19.7,56.4-26.9
			c10.1-3.7,20.4-6.9,30.9-9.6c10.4-2.6,21-4.7,31.7-6c5.3-0.6,10.7-1.1,16.1-1.2c2.7,0,5.4,0,8,0.3c0.7,0.1,1.3,0.2,1.9,0.3
			c0.3,0,0.6,0.2,0.9,0.2c0.3,0.1,0.5,0.2,0.8,0.3c0.4,0.2,0.8,0.7,1.1,1.2c0.4,0.5,0.7,1.1,1,1.6c1.3,2.3,2.3,4.8,3.4,7.3
			c1,2.5,2,5,3,7.5l5.7,15.2c1.9,5.1,3.8,10.1,6.2,15.1c0.6,1.2,1.2,2.5,2.1,3.6c0.9,1.2,2,2.2,3.2,2.9c2.5,1.5,5.4,2.1,8.2,2.1
			c2.8,0,5.6-0.7,8.2-2.1c5.1-2.8,8.7-9.8,8.8-14.5c0.1,0.1,0.2,0.3,0.2,0.4c1,1.9,1.7,3.9,2.3,6
			C442.1,135.7,442.5,140.1,441.5,144.2z M381.7,136.6c0.9-3,1.9-5.9,3.1-8.1C384.3,131.3,383.3,134.1,381.7,136.6z M217.7,244.8
			c0,1.1,0.4,2.1,1.1,3c-1.6,1.8-2.5,4.1-2.5,6.6c0,0.6,0.1,1.3,0.2,1.9c0,0-0.1,0-0.1,0c-1.9,0-3.7,0.4-5.1,1.2
			c-0.1-0.9-0.2-1.8-0.2-2.7c0-7.6,4.2-14.3,10.1-16.1c0.5,0.1,1.1,0.3,1.6,0.5C219.8,240.1,217.7,242.2,217.7,244.8z"/>
		<path d="M263.3,464.6l-0.3-7.8l-0.4-7.8l-0.5-7.7c-0.4-5.2-0.5-10.3-1.5-15.5c-0.5,5.2-0.1,10.4-0.1,15.5l0.2,7.8l0.3,7.8l0.4,7.8
			c0.2,2.6,0.3,5.2,0.5,7.7c0.4,5.2,0.9,10.3,1.6,15.5c0.2-5.2,0.2-10.4,0.1-15.5C263.5,469.8,263.4,467.2,263.3,464.6z"/>
		<path d="M272.3,374.8c0.1-2.8,0.1-5.6,0.1-8.5c-0.5,2.8-0.9,5.6-1.2,8.4c-0.4,2.8-0.7,5.6-1,8.4c-0.6,5.6-1.1,11.2-1.5,16.8
			c-0.4,5.6-0.8,11.2-1.1,16.8c-0.1,2.8-0.3,5.6-0.3,8.4c-0.1,2.8-0.1,5.6-0.1,8.5c0.5-2.8,0.9-5.6,1.2-8.4c0.4-2.8,0.7-5.6,1-8.4
			c0.6-5.6,1.1-11.2,1.5-16.8c0.4-5.6,0.8-11.2,1.1-16.8C272.1,380.4,272.2,377.6,272.3,374.8z"/>
		<path d="M196.2,429.4c-0.1,0-0.2,0-0.2,0c0,0,0,0,0,0l-0.1,0c0,0,0,0-0.1,0c0-0.1,0-0.2,0-0.2c0.1-0.4,0.3-0.8,0.5-1.2
			c0.4-0.9,0.9-1.8,0.9-3.2c-1.2,0.4-1.9,1.3-2.5,2.1c-0.3,0.4-0.7,0.9-0.9,1.6c-0.1,0.3-0.2,0.7-0.2,1.2c0,0.5,0.2,1.2,0.7,1.5
			c0.5,0.4,0.9,0.5,1.3,0.5c0.1,0,0.2,0,0.3,0c0.1,0,0.3,0,0.4,0c0.2,0,0.4-0.1,0.6-0.2c0.6-0.3,1.1-0.6,1.6-0.9
			c0.9-0.7,1.6-1.6,2-2.7c-1.2,0.2-2.2,0.6-3,1.1C197,429.1,196.5,429.3,196.2,429.4z M195.9,429.5
			C195.9,429.5,195.9,429.5,195.9,429.5C195.9,429.5,195.9,429.5,195.9,429.5z"/>
		<circle class="st2" cx="383.3" cy="250.4" r="10"/>
		<circle class="st2" cx="412.7" cy="223.8" r="4.5"/>
		<circle class="st2" cx="418.4" cy="250.4" r="3.6"/>
		<circle class="st2" cx="414" cy="282.5" r="4.5"/>
		<circle class="st2" cx="360.4" cy="276.9" r="3.4"/>
		<circle class="st2" cx="352.7" cy="248.1" r="2.5"/>
		<circle class="st2" cx="361.8" cy="225" r="3.4"/>
		<circle class="st2" cx="383.8" cy="198.9" r="5"/>
		<path class="st9" d="M235.7,141.4c8.1,2.5,30,7.5,40.4,6.8c0.2-0.7-24.8-14.6-44.1-21.1c-19.1-6.4-40.2-10-40.2-10
			S205.5,132.3,235.7,141.4z"/>
		<path class="st9" d="M351.8,205.9c0.5-0.5-5.3-18.6-20.7-34c-11.7-11.8-19.7-17.9-19.7-17.9s0.3,11.3,0.8,11.8
			C323.3,175.9,343,190.8,351.8,205.9z"/>
		<path class="st9" d="M200.8,161.9c6.5,0.2,20.9-0.7,28.1-3.8c0-0.6-14-1.7-29.7-2.6c-15.5-0.9-31.3,0.7-31.3,0.7
			S176.6,161.3,200.8,161.9z"/>
		<path class="st9" d="M176.9,179.3c-4.4,2.5-13.6,8.9-17.4,13.8c0.2,0.4,8.9-5.1,19.5-11.1c11.6-6.6,20.7-12.1,20.7-12.1
			S193.2,169.9,176.9,179.3z"/>
	</g>
	<path class="st9" d="M297.2,150.3c-2-2-10.4-10-13.4-12.1c0.7,1.5,1.8,5.9,1.8,7.5c-6.8-5.2-19.8-12.8-28.8-16.9
		c2.4,4.5,4.5,8.6,4.5,8.6s24.7,15.3,30.7,20.2c-0.4-2-0.9-5.3-1.3-7.3c6.5,5.3,12.3,10.2,19,15.2
		C309.4,165.4,302.8,156.2,297.2,150.3z"/>
	<path class="st10" d="M352.8,87.4c2.5,0.8,4.7,2.3,6.9,3.6c2.2,1.3,4.5,2.7,6.7,4.1c4.4,2.8,8.7,5.8,12.8,9
		c4.1,3.2,8.1,6.5,12,10.1c1.9,1.8,3.8,3.6,5.5,5.6c1.7,2,3.5,4,4.8,6.3l-0.9,0.5c-2.8-4.3-6.6-7.9-10.3-11.4
		c-3.8-3.5-7.8-6.8-11.9-10c-4.1-3.2-8.3-6.3-12.6-9.1c-2.2-1.4-4.4-2.8-6.6-4.1C356.9,90.5,354.6,89.3,352.8,87.4z"/>
	<path class="st10" d="M402.5,121.4c0,3.3-1.2,6.5-2.4,9.5c-1.2,3-2.6,6-4.3,8.8c-1.6,2.8-3.4,5.6-5.5,8.2c-2,2.6-4.2,5.1-7.1,6.7
		c2-2.6,4.1-5,6-7.6c1.9-2.6,3.6-5.3,5.2-8.1c1.6-2.8,3.1-5.7,4.4-8.6C400.1,127.5,401.1,124.4,402.5,121.4z"/>
	<path class="st10" d="M368.2,85.5c-1.3,3-3.1,5.6-4.8,8.3l-5.2,8c-3.4,5.4-6.8,10.8-10.2,16.2l-10.1,16.3
		c-3.4,5.4-6.7,10.9-10.3,16.2c-0.5,0.7-0.9,1.3-1.5,2c-0.1,0.1-0.2,0.2-0.3,0.3c-0.1,0-0.1,0.1-0.2,0.2c0,0-0.1,0.1-0.2,0.1
		c0,0-0.1,0-0.2,0.1c-0.1,0-0.2,0-0.4,0c-0.2-0.1-0.3-0.1-0.3-0.1l0,0l-0.1,0l-0.1-0.1l-0.2-0.2l-1-0.6c-1.3-0.9-2.7-1.7-4-2.5
		l-8.2-4.9c-5.5-3.3-11-6.5-16.5-9.7c-2.8-1.6-5.6-3.1-8.4-4.6c-2.8-1.5-5.6-3-8.5-4.4c-2.9-1.4-5.7-2.7-8.7-4
		c-2.9-1.3-5.9-2.3-8.7-3.9c3.2,0.4,6.2,1.6,9.2,2.9c3,1.2,5.9,2.6,8.7,4c2.9,1.4,5.7,2.9,8.6,4.3c2.8,1.5,5.7,2.9,8.5,4.5
		c5.6,3.1,11.1,6.3,16.6,9.6l8.2,4.9c1.4,0.8,2.7,1.7,4.1,2.5l1,0.7l0.3,0.2l0.1,0.1l0.1,0l0,0c0.1,0,0,0-0.2-0.1
		c-0.2,0-0.2,0-0.3,0c-0.1,0-0.1,0-0.1,0l-0.1,0c0,0,0,0,0,0c0,0,0.1-0.1,0.2-0.2c0.5-0.5,0.9-1.2,1.4-1.8
		c3.6-5.2,6.9-10.7,10.3-16.1l10.1-16.2c3.4-5.4,6.8-10.8,10.2-16.2l5.2-8C364.1,90.4,365.8,87.7,368.2,85.5z"/>
	<path class="st10" d="M282.1,133.9c0.6-1.5,1.6-2.7,2.6-3.8c1-1.2,2-2.3,3.1-3.5c2.1-2.3,4.2-4.5,6.4-6.7c1.1-1.1,2.2-2.1,3.5-3.1
		c0.3-0.3,0.6-0.5,0.9-0.7c0.2-0.1,0.3-0.2,0.5-0.4l0.3-0.2l0.1-0.1c0,0,0.3-0.1,0.4-0.1c0.4,0,0.6,0.1,0.8,0.2
		c0.2,0.1,0.4,0.1,0.6,0.2c0.4,0.2,0.7,0.3,1.1,0.5c2.8,1.4,5.4,3.1,8,4.6l-0.5,0.9c-2.7-1.5-5.3-3.1-8.1-4.4
		c-0.3-0.2-0.7-0.3-1-0.5c-0.2-0.1-0.3-0.1-0.5-0.2c-0.1-0.1-0.4-0.1-0.3-0.1c0,0,0.2-0.1,0.1,0l-0.1,0.1l-0.2,0.1
		c-0.1,0.1-0.3,0.2-0.4,0.3c-0.3,0.2-0.6,0.4-0.9,0.7c-1.2,1-2.3,2-3.4,3.1c-2.2,2.1-4.4,4.3-6.5,6.5c-1.1,1.1-2.1,2.2-3.1,3.4
		C284.4,131.8,283.4,132.9,282.1,133.9z"/>
	<path class="st10" d="M293.2,142.2c0.8-2.1,2-3.9,3.3-5.6c1.3-1.7,2.6-3.4,4-5.1c2.7-3.3,5.5-6.6,8.4-9.8l8.7-9.5
		c1.5-1.6,2.9-3.1,4.4-4.7c1.5-1.5,3-3.1,4.8-4.4l0.6,0.8c-0.8,0.6-1.6,1.4-2.3,2.1c-0.8,0.8-1.5,1.5-2.2,2.3l-4.3,4.8l-8.7,9.6
		c-2.9,3.2-5.7,6.4-8.5,9.7C298.6,135.5,296.3,139.1,293.2,142.2z"/>
	<path class="st10" d="M271.1,112.8c1.3,0.1,2.5,0.4,3.7,0.8c1.2,0.4,2.3,0.9,3.5,1.4c2.3,1,4.5,2.1,6.8,3.2
		c2.2,1.1,4.4,2.3,6.6,3.5l6.5,3.7c8.7,4.9,17.4,9.7,26.1,14.7c2.2,1.2,4.3,2.5,6.5,3.8c1.1,0.6,2.1,1.3,3.2,2l0.8,0.5l0.4,0.3
		l0.2,0.1c0.1,0-0.1,0-0.1,0c-0.1,0-0.1,0-0.1,0c0,0,0.1-0.1,0.2-0.2c0.1-0.1,0.2-0.2,0.3-0.3c0.2-0.2,0.4-0.5,0.5-0.7
		c1.3-2,2.5-4.3,3.7-6.4l0.5-0.8c0.1-0.1,0.2-0.3,0.3-0.4l0.1-0.1c0,0,0,0,0-0.1c0.1-0.1,0.1-0.1,0.2-0.1c0.2-0.1,0.1,0,0.2,0
		c0.2,0,0.3,0,0.4,0.1c0.7,0.2,1.2,0.5,1.8,0.8c1.1,0.6,2.2,1.2,3.3,1.8c4.3,2.5,8.6,5.2,12.6,8.1c4,3,8,6.1,11,10.2
		c-1.9-1.6-3.8-3.2-5.8-4.7c-1.9-1.5-3.9-3-5.9-4.5c-4-2.9-8.2-5.6-12.4-8.2c-1.1-0.6-2.1-1.2-3.2-1.8c-0.5-0.3-1.1-0.6-1.6-0.7
		c0,0-0.1,0-0.1,0c0,0,0,0,0.1,0c0.1,0,0.1-0.1,0.2-0.1c0,0,0,0,0,0l-0.1,0.1c-0.1,0.1-0.2,0.2-0.2,0.4l-0.5,0.8
		c-1.2,2.1-2.4,4.4-3.8,6.5c-0.2,0.3-0.4,0.5-0.6,0.8c-0.1,0.1-0.2,0.3-0.3,0.4c-0.1,0.1-0.3,0.3-0.6,0.4c-0.1,0-0.2,0.1-0.3,0
		c-0.1,0-0.3-0.1-0.3-0.1l-0.2-0.1l-0.4-0.3l-0.8-0.5c-1.1-0.7-2.1-1.3-3.2-1.9c-2.1-1.3-4.3-2.5-6.4-3.8
		c-8.6-4.9-17.4-9.8-26.1-14.7C289,121.3,280.1,116.8,271.1,112.8z"/>
	<path class="st10" d="M335,171.7c1.2-3.4,2.9-6.4,4.5-9.6l4.7-9.5l9.1-19.1l9.2-19.1l4.6-9.5c1.6-3.2,2.8-6.5,5.1-9.3
		c-0.8,3.5-2.5,6.6-3.9,9.8l-4.5,9.6l-9.1,19.1l-9.3,19l-4.8,9.5C338.8,165.8,337.3,169,335,171.7z"/>
	<path class="st10" d="M363.3,125.3c-0.3,2.4-1.2,4.7-2,6.9c-0.9,2.2-1.8,4.4-2.7,6.6c-1.8,4.4-3.8,8.7-5.7,13
		c-2,4.3-4,8.6-6.1,12.9c-2.2,4.2-4,8.6-7,12.4c1.5-4.6,3.8-8.7,5.8-13c2-4.3,4-8.6,5.9-12.9l5.8-13c1-2.2,1.9-4.3,2.8-6.5
		C361.1,129.5,362,127.4,363.3,125.3z"/>
	<path class="st10" d="M320,94.6c1.6,0.5,3.1,1.1,4.5,1.8c1.4,0.7,2.9,1.5,4.3,2.2l2.1,1.1c0.4,0.2,0.7,0.4,1.1,0.5
		c0.3,0.2,0.8,0.3,1,0.4c0,0.1,0.1,0,0.2,0c0.1-0.1,0.3-0.1,0.4-0.2c0.3-0.2,0.5-0.4,0.8-0.7c0.5-0.6,1-1.2,1.4-1.9
		c0.5-0.7,0.9-1.3,1.5-2c0.3-0.3,0.6-0.6,1-0.9c0.2-0.1,0.4-0.3,0.7-0.4c0.2-0.1,0.8-0.1,0.9-0.1c1,0.2,1.7,0.5,2.4,0.9
		c0.8,0.3,1.5,0.7,2.2,1.1c2.9,1.5,5.7,3.2,8.4,4.8c5.5,3.4,10.9,7,16.2,10.7c2.6,1.9,5.2,3.8,7.8,5.8c2.5,2,5.1,4.1,7,6.7
		c-2.7-1.8-5.2-3.8-7.7-5.8c-2.6-2-5.2-3.8-7.8-5.7c-5.3-3.7-10.6-7.3-16.1-10.7c-2.7-1.7-5.5-3.3-8.3-4.8c-0.7-0.4-1.4-0.7-2.1-1.1
		c-0.7-0.3-1.5-0.6-2.1-0.8c-0.1,0-0.2,0-0.2,0c0,0,0-0.1-0.1,0c-0.1,0.1-0.2,0.1-0.4,0.2c-0.3,0.2-0.5,0.5-0.8,0.7
		c-0.5,0.6-1,1.2-1.4,1.9c-0.5,0.7-1,1.3-1.5,2c-0.3,0.3-0.6,0.6-1,0.9c-0.4,0.2-0.8,0.6-1.6,0.5c-0.6-0.2-0.9-0.3-1.3-0.5
		c-0.4-0.2-0.7-0.3-1.1-0.5l-2.2-1.1c-1.4-0.7-2.8-1.5-4.2-2.4C322.6,96.6,321.2,95.7,320,94.6z"/>
	<path class="st10" d="M315.7,97.2c3.2,1,6.1,2.7,9,4.2c2.9,1.5,5.9,3.1,8.8,4.4l0.1,0.1c0,0,0,0,0,0c0,0,0,0.1,0.1,0
		c0.1,0,0.1,0,0.2-0.1l0.2-0.1c0.3-0.2,0.6-0.4,0.9-0.6c0.6-0.5,1.1-1.1,1.6-1.7c0.5-0.6,1-1.3,1.5-1.9c0.3-0.3,0.5-0.7,0.8-1
		c0.1-0.1,0.1-0.2,0.2-0.3c0.1-0.1,0.2-0.2,0.3-0.3c0.1-0.1,0.4-0.3,0.6-0.3c0.2,0,0.3,0,0.5,0c1,0.1,1.8,0.5,2.6,0.8
		c0.8,0.3,1.5,0.7,2.3,1.1c1.5,0.8,2.9,1.6,4.4,2.4c5.7,3.4,11.2,7.2,16.6,11.1c2.7,1.9,5.4,3.9,8,6c2.6,2.1,5.2,4.2,7.2,6.9
		c-2.8-1.9-5.3-4-7.9-6c-2.6-2-5.3-4-8-5.9c-5.4-3.8-10.9-7.5-16.6-10.8c-1.4-0.8-2.8-1.7-4.3-2.4c-0.7-0.4-1.5-0.7-2.2-1.1
		c-0.7-0.3-1.5-0.6-2.1-0.7c-0.1,0-0.1,0-0.1,0c-0.1,0,0.1-0.1,0,0c0,0-0.1,0.1-0.1,0.1c-0.1,0.1-0.1,0.1-0.2,0.2
		c-0.3,0.3-0.5,0.6-0.8,0.9c-0.5,0.7-1,1.3-1.6,2c-0.5,0.6-1.1,1.3-1.8,1.9c-0.3,0.3-0.7,0.6-1.1,0.8l-0.3,0.2l-0.4,0.1
		c-0.2,0.1-0.8-0.1-0.9-0.1c-1.6-0.7-3-1.4-4.5-2.2l-4.4-2.3C321.3,100.8,318.3,99.3,315.7,97.2z"/>
	<circle class="st10" cx="362.8" cy="139.1" r="1.7"/>
	<circle class="st10" cx="357" cy="153.9" r="1.4"/>
	<circle class="st10" cx="327.8" cy="137.4" r="1.7"/>
	<circle class="st10" cx="330.6" cy="151.6" r="1.2"/>
	<circle class="st10" cx="344" cy="144.1" r="1.5"/>
	<circle class="st10" cx="301.5" cy="121.8" r="1.7"/>
	<circle class="st10" cx="214.7" cy="391.8" r="1.7"/>
	<circle class="st10" cx="343.1" cy="361.8" r="1.7"/>
	<circle class="st10" cx="300.5" cy="440.2" r="1.7"/>
	<circle class="st10" cx="232.9" cy="439.3" r="1.7"/>
	<circle class="st10" cx="230.1" cy="450.9" r="1.5"/>
	<circle class="st10" cx="303.2" cy="450.9" r="1.5"/>
	<circle class="st10" cx="342.6" cy="106.9" r="1.7"/>
	<path class="st10" d="M235.3,346.7c-1.8,4.8-3.3,9.6-4.8,14.4c-1.5,4.8-3,9.7-4.6,14.5c-1.7,4.8-3.5,9.5-5.3,14.3
		c-1.8,4.7-3.7,9.5-5.7,14.1c0.9-2.4,1.7-4.8,2.5-7.2c0.8-2.4,1.7-4.8,2.5-7.2c1.6-4.8,3.1-9.6,4.7-14.5c1.6-4.8,3.4-9.6,5.1-14.3
		C231.5,356.1,233.3,351.4,235.3,346.7z"/>
	<path class="st10" d="M209.7,393.1c2.3,1,4.5,2.2,6.6,3.4c2.2,1.2,4.3,2.5,6.4,3.9l0.8,0.5c0.3,0.2,0.5,0.3,0.8,0.6
		c0.3,0.2,0.5,0.8,0.5,1.2c0,0.4-0.2,0.7-0.3,1l-0.6,1.8c-0.1,0.3-0.1,0.5-0.1,0.7c0,0.2,0.1,0.3,0.3,0.5c2.1,1.2,4.2,2.6,6.3,4
		c-2.3-1-4.5-2.1-6.7-3.3c-0.3-0.2-0.6-0.6-0.7-1c-0.1-0.4,0-0.8,0.1-1.1l0.5-1.8c0.1-0.3,0.2-0.6,0.2-0.8c0-0.2,0-0.3-0.2-0.4
		c-0.2-0.1-0.4-0.3-0.7-0.5l-0.8-0.5c-2.1-1.4-4.1-2.8-6.2-4.2C213.9,395.6,211.8,394.3,209.7,393.1z"/>
	<path class="st10" d="M295.7,348.7c4.5,1.8,9,3.5,13.5,5.2c2.3,0.8,4.5,1.6,6.8,2.4c2.2,0.8,4.6,1.6,6.8,2.3
		c4.6,1.5,9.2,3,13.8,4.5c4.6,1.4,9.2,2.9,13.9,4l-0.2,1c-4.7-1.2-9.3-2.6-13.9-4c-4.6-1.4-9.2-3-13.8-4.5l-6.9-2.3
		c-2.3-0.8-4.5-1.8-6.7-2.7C304.5,352.7,300.1,350.7,295.7,348.7z"/>
	<path class="st10" d="M346.6,361.8c-0.6,4.1-1.1,8.1-1.7,12.2c-0.3,2-0.5,4.1-1,6.1c-0.1,0.3-0.1,0.5-0.2,0.8l-0.1,0.2l0,0.1
		c0,0-0.1,0.1-0.1,0.2c-0.1,0.1-0.1,0.2-0.2,0.2c-0.1,0-0.1,0.1-0.2,0.1c-0.2,0.1-0.3,0.1-0.4,0.1c-0.4,0-0.7,0-1-0.1
		c-0.3-0.1-0.5-0.1-0.8-0.2c-0.5-0.1-1-0.3-1.4-0.4c-0.5-0.1-0.9-0.1-1,0l0,0c-0.4,0.4-0.7,1.2-0.9,1.9c-0.3,0.7-0.5,1.4-0.7,2.1
		c-0.5,1.4-0.9,2.9-1.2,4.3c0.2-1.5,0.4-3,0.7-4.5c0.1-0.7,0.3-1.5,0.5-2.2c0.2-0.7,0.4-1.5,0.9-2.2l0,0c0.3-0.3,0.7-0.5,1-0.5
		c0.3,0,0.6,0,0.9,0c0.6,0.1,1.1,0.2,1.6,0.4c0.2,0.1,0.5,0.1,0.7,0.2c0.2,0,0.5,0.1,0.6,0.1l0,0c0,0,0,0,0,0c0,0,0,0,0,0
		c0,0-0.1,0-0.1,0.1c0,0,0,0.1,0,0.1l0-0.1l0.1-0.2c0.1-0.2,0.1-0.5,0.2-0.7c0.5-1.9,0.9-4,1.2-6
		C344.8,369.8,345.6,365.8,346.6,361.8z"/>
	<path class="st10" d="M236.4,379.9c0.8,4.3,1.6,8.6,2.2,12.9l1.9,13c0.6,4.3,1.3,8.6,1.4,13.1c0.1,2.2,0,4.4-0.3,6.6
		c-0.3,2.2-0.8,4.3-1.3,6.5c-1.1,4.2-2.3,8.4-3.4,12.6c-1.1,4.2-2.3,8.4-3.6,12.6c-0.3,1-0.6,2.1-1,3.1l-0.5,1.6l-0.3,0.8
		c0,0.1-0.2,0.4-0.3,0.5c-0.1,0.2-0.3,0.3-0.5,0.4c-2.1,1-4.1,1.7-6.2,2.5c-4.1,1.5-8.3,2.8-12.4,4.2c3.9-2.1,7.9-3.7,12-5.3l3-1.2
		c1-0.4,2-0.8,2.9-1.3c0.1,0,0.1-0.1,0.2-0.3l0.3-0.7l0.5-1.5c0.3-1,0.6-2.1,0.9-3.1l7.1-25.2c0.6-2.1,1-4.2,1.4-6.3
		c0.3-2.1,0.4-4.3,0.4-6.4c-0.1-4.3-0.7-8.6-1.2-13l-1.4-13C237.7,388.5,237.1,384.2,236.4,379.9z"/>
	<path class="st10" d="M299.5,378.6c-1.4,9.1-3.7,18.1-5,27.1c-0.6,4.5-1.3,9.1-1.5,13.7c-0.1,2.3-0.1,4.6,0.2,6.8
		c0.3,2.3,0.7,4.5,1.3,6.7c2.4,8.8,4.9,17.7,7.4,26.6c0.3,1.1,0.7,2.2,1,3.3c0.2,0.5,0.4,1.1,0.6,1.6c0,0.1,0,0.1,0.1,0.2
		c0,0.1,0,0.1,0,0.1c0,0-0.1-0.1,0,0c0,0,0.1,0,0.1,0.1c0.2,0.1,0.5,0.2,0.8,0.3c2.1,0.7,4.4,1.3,6.6,2c4.4,1.4,8.8,2.7,13,4.8
		c-2.2-0.7-4.4-1.3-6.6-1.9l-6.7-1.7c-2.2-0.6-4.4-1.2-6.7-1.9c-0.3-0.1-0.6-0.2-0.9-0.3c-0.1,0-0.2-0.1-0.3-0.1
		c-0.1,0-0.3-0.2-0.4-0.3c-0.1-0.1-0.2-0.2-0.2-0.3c0-0.1-0.1-0.2-0.1-0.2c-0.2-0.6-0.4-1.1-0.6-1.7c-0.4-1.1-0.7-2.2-1-3.3
		c-1.3-4.4-2.6-8.9-3.8-13.3c-1.2-4.5-2.4-8.9-3.6-13.4c-0.5-2.3-1-4.5-1.2-6.9c-0.2-2.3-0.3-4.7-0.1-7c0.3-4.6,1-9.2,1.7-13.8
		C295.2,396.5,297.9,387.6,299.5,378.6z"/>
	<path class="st10" d="M298,448.5c2.4-1.6,4.7-3.6,6.9-5.6c2.2-2,4.3-4.1,6.5-6.2c-0.9,1.2-1.8,2.4-2.8,3.6c-1,1.1-2,2.3-3.1,3.3
		c-1.1,1.1-2.2,2.1-3.3,3.1c-1.2,1-2.4,1.9-3.7,2.7L298,448.5z"/>
	<path class="st10" d="M234.7,449.2c-1-0.6-1.9-1.3-2.7-2.1c-0.8-0.8-1.6-1.6-2.3-2.5c-1.5-1.7-2.8-3.5-4.1-5.4l0.1-0.1
		c1.6,1.6,3.1,3.3,4.7,4.8c1.6,1.6,3.2,3.1,4.9,4.5L234.7,449.2z"/>
	<path class="st2" d="M267.1,362.5c-6.4,0-14.7-7-19.1-14.1l0.8-0.5c4.5,7,12.7,14,18.8,13.6c5.9-0.4,11.5-7,14.5-16.9l1,0.3
		c-3.1,10.4-9,17.2-15.4,17.6C267.5,362.5,267.3,362.5,267.1,362.5z"/>
	<path class="st2" d="M222.9,499.6c0.1,1.5,0.5,2.6,1.4,3.5c0.4,0.4,1,0.8,1.5,1.1c0.6,0.3,1.2,0.4,1.9,0.5c1.3,0.2,2.7,0.3,4,0
		c0.7-0.1,1.3-0.3,1.9-0.6c0.6-0.3,1.2-0.6,1.8-1c-0.9,1.1-2.2,1.9-3.6,2.3c-1.4,0.4-2.9,0.5-4.3,0.3c-0.7-0.1-1.5-0.3-2.2-0.6
		c-0.7-0.3-1.3-0.7-1.9-1.3c-0.5-0.6-1-1.3-1.1-2C222.4,501,222.5,500.2,222.9,499.6z"/>
	<path class="st2" d="M304.8,501.1c0.4,0.6,0.5,1.4,0.4,2.2c-0.1,0.8-0.5,1.5-1.1,2c-0.5,0.6-1.2,1-1.9,1.3
		c-0.7,0.3-1.4,0.5-2.2,0.6c-1.4,0.2-2.9,0.1-4.3-0.3c-1.4-0.4-2.6-1.2-3.6-2.3c0.6,0.4,1.2,0.8,1.8,1c0.6,0.3,1.3,0.5,1.9,0.6
		c1.3,0.2,2.7,0.2,4,0c0.7-0.1,1.3-0.3,1.9-0.5c0.6-0.3,1.1-0.7,1.5-1.1C304.2,503.7,304.7,502.5,304.8,501.1z"/>
	<circle class="st2" cx="374.9" cy="277.1" r="0.9"/>
	<circle class="st2" cx="392.1" cy="275.5" r="0.9"/>
	<path class="st2" d="M251.7,492.1c-2.6,0-5-0.4-7.3-1.6l0.5-0.9c3.6,2,7.8,1.6,12.7,1L278,488l0.1,1l-20.4,2.6
		C255.6,491.9,253.6,492.1,251.7,492.1z"/>
</g>
</svg>
