<svg xmlns="http://www.w3.org/2000/svg" xmlns:xlink="http://www.w3.org/1999/xlink" version="1.1" width="619.6666558716038" height="556.9999908606214" enable-background="new 0 0 595.28 841.89" xml:space="preserve" style=""><rect id="backgroundrect" width="100%" height="100%" x="0" y="0" fill="none" stroke="none" class="" style=""/>

<g class="currentLayer" style=""><title>Layer 1</title><g id="svg_1" class="selected">
	<linearGradient id="SVGID_1_" x1="-0.06362894930816165" y1="0.24746345161396585" x2="1.250695995642787" y2="0.8674458396860657" transform="translate(-125.83332824707031,-16.66666603088379) translate(0.8333333134651184,-240.8333282470703) translate(25.421009063720703,24.936006546020508) scale(1.933982253074646,1.8543336391448975) translate(-25.421009063720703,-24.936006546020508) ">
		<stop offset="0" style="stop-color:#ED1C24"/>
		<stop offset="0.1452" style="stop-color:#EC008C"/>
		<stop offset="0.3065" style="stop-color:#2E3192"/>
		<stop offset="0.4731" style="stop-color:#00AEEF"/>
		<stop offset="0.6075" style="stop-color:#6ABD45"/>
		<stop offset="0.7366" style="stop-color:#FFF200"/>
		<stop offset="1" style="stop-color:#ED1C24"/>
	</linearGradient>
	<path fill-rule="evenodd" clip-rule="evenodd" fill="none" stroke="url(#SVGID_1_)" stroke-width="4" stroke-miterlimit="10" d="M466.38249290975415,24.93600501809663 h113.9831120494604 c0,0 11.984888022303581,3.478729907035828 14.493263004541397,19.262817843437194 v470.85054331803326 c0,0 0.2804274266958238,19.26096350979805 -17.282065413475035,23.003008793592453 l-235.42172568452358,0.5377567553520205 v-83.081564368248 h124.22548206174375 V24.93600501809663 z" id="svg_2"/>
	<linearGradient id="SVGID_2_" x1="-0.028391847847959378" y1="0.0017693420643019307" x2="1.0285642982421017" y2="0.9983824482503173" transform="translate(-125.83332824707031,-16.66666603088379) translate(0.8333333134651184,-240.8333282470703) translate(25.421009063720703,24.936006546020508) scale(1.933982253074646,1.8543336391448975) translate(-25.421009063720703,-24.936006546020508) ">
		<stop offset="0" style="stop-color:#ED1C24"/>
		<stop offset="0.1452" style="stop-color:#EC008C"/>
		<stop offset="0.3065" style="stop-color:#2E3192"/>
		<stop offset="0.4731" style="stop-color:#00AEEF"/>
		<stop offset="0.6075" style="stop-color:#6ABD45"/>
		<stop offset="0.7366" style="stop-color:#FFF200"/>
		<stop offset="1" style="stop-color:#ED1C24"/>
	</linearGradient>
	<path fill-rule="evenodd" clip-rule="evenodd" fill="none" stroke="url(#SVGID_2_)" stroke-width="4" stroke-miterlimit="10" d="M449.17005085738987,140.809605460983 l-288.1710916371345,0.08900801467895512 v78.90931368017198 h197.25458592009545 v136.59577886033057 H160.99895922025527 v77.43882710433007 h288.1710916371345 V140.809605460983 z" id="svg_3"/>
	<linearGradient id="SVGID_3_" x1="-0.05206492639872507" y1="0.050915249688813675" x2="0.9386919980907278" y2="0.8345503356207461" transform="translate(-125.83332824707031,-16.66666603088379) translate(0.8333333134651184,-240.8333282470703) translate(25.421009063720703,24.936006546020508) scale(1.933982253074646,1.8543336391448975) translate(-25.421009063720703,-24.936006546020508) ">
		<stop offset="0" style="stop-color:#ED1C24"/>
		<stop offset="0.1452" style="stop-color:#EC008C"/>
		<stop offset="0.3065" style="stop-color:#2E3192"/>
		<stop offset="0.4731" style="stop-color:#00AEEF"/>
		<stop offset="0.6075" style="stop-color:#6ABD45"/>
		<stop offset="0.7366" style="stop-color:#FFF200"/>
		<stop offset="1" style="stop-color:#ED1C24"/>
	</linearGradient>
	<path fill-rule="evenodd" clip-rule="evenodd" fill="none" stroke="url(#SVGID_3_)" stroke-width="4" stroke-miterlimit="10" d="M449.096559531773,24.93600501809663 l-411.4121767320633,0.1038426837921143 c0,0 -8.362539262294769,3.2098515293598178 -12.263381466746331,13.91121096086502 l0.07349132561683658,486.29528819847104 c0,0 5.295243408918381,12.839406117439271 16.723144542336463,13.375308539152146 h284.59515845119955 v-83.07971003460884 h-185.43602037155628 v-121.62574339151384 h193.43497097027304 v-92.47190991687775 H141.37677528055988 v-123.22974198937416 l307.7932755768299,-0.1038426837921143 L449.096559531773,24.93600501809663 z" id="svg_4"/>
</g></g></svg>